<?xml version="1.0" encoding="utf-8"?>
<!-- Generator: Adobe Illustrator 27.3.1, SVG Export Plug-In . SVG Version: 6.00 Build 0)  -->
<svg version="1.1" id="Layer_1" xmlns="http://www.w3.org/2000/svg" xmlns:xlink="http://www.w3.org/1999/xlink" x="0px" y="0px"
	 viewBox="0 0 1920 882.9" style="enable-background:new 0 0 1920 882.9;" xml:space="preserve">
<style type="text/css">
	.st0{clip-path:url(#SVGID_00000137105512797579088380000003143773615903089598_);}
	.st1{fill:#EEF3F9;}
	.st2{clip-path:url(#SVGID_00000137105694505465696030000014991505596292836994_);}
</style>
<g id="bg-image" transform="translate(-72.081 -731.408)">
	<g id="Grupo_4405" transform="translate(72.081 731.408)">
		<g>
			<defs>
				<rect id="SVGID_1_" x="15.1" y="416.7" width="87.8" height="335.2"/>
			</defs>
			<clipPath id="SVGID_00000154404564646929234540000013903784474265947305_">
				<use xlink:href="#SVGID_1_"  style="overflow:visible;"/>
			</clipPath>
			<g id="Grupo_4404" style="clip-path:url(#SVGID_00000154404564646929234540000013903784474265947305_);">
				<path id="Trazado_8225" class="st1" d="M99.7,723.2c-0.8-0.7-0.2-1.6-0.3-2.3l-4.7,1.5l1.6,1.7c0.6,0,1.3,0,1.9,0.2
					c0.6,0.2,1.3,0.6,1.1,1.5s-0.7,1.5-1.9,0.9c0.6,0.7,0.8,1.2,0.3,2c-3,5.2-6.1,10.4-11,14.1c-2.4,2.1-5.3,3.7-8.3,4.7
					c-3.5,0.9-6.9,2.1-10.3,3.1c-1.1,0.3-2.4,0.7-3.4-0.7c-0.2,0.9-1,1.4-1.9,1.4c-1.1,0.1-2.2,0.7-3.2,0.7c-2,0.1-4-0.1-5.9-0.7
					c-1.2-0.2-2.5-0.3-3.8-0.3c-0.5,0-1-0.1-1.5-0.3c-2.1-0.9-4.3-1.8-6.5-2.4c-2.2-0.8-4.3-1.8-6.4-3c-0.2-0.1-0.3-0.3-0.5-0.3
					c-1.4,0-1.6-1-1.8-1.9c-2-0.6-3.7-1.8-4.9-3.5c-0.7-0.7-1.4-1.2-2.2-1.7c0-1.5-0.9-2.9-2.3-3.5c-0.2-0.1-0.3-0.2-0.4-0.4
					c-0.1-1.5-1.2-2.2-2.2-3.1c-0.4-0.4-0.4-1.2-0.8-1.7c-1-1.3-1.2-3-2.4-4.2c-0.2-0.3-0.3-0.6-0.3-0.9c-0.5-2.2-0.9-4.5-1.4-6.8
					l1.6-1.1l-1.7-0.4c-0.7-3.6-1.1-7.2-1.1-10.9c0-1.5-0.1-2.9,0.1-4.4c0.2-1,0.5-2.1,0.8-3.1c0.1-0.2,0.4-0.5,0.3-0.7
					c-1.1-2.5,1.5-3.9,1.7-6.1c0.2-1.2,0.7-2.3,1.2-3.3c0.2-0.6,0.5-1.2,0.8-1.7c0.5,0,1.1,0.1,1.6,0.3c0.4,0.2,0.7,0.5,1,0.8
					c-0.2,0.4-0.5,0.7-0.8,1c-0.3,0.2-0.8,0.1-1.1,0.2c-0.5,0.2-1,0.4-1.7,0.7c0.4,0.8,0.8,1.5,1.1,2.2c0.8-0.9,1.4-2.2,2.3-2.5
					c1.2-0.3,1.8-1.3,3.3-1.6l-4.4-1.9c-0.8-1.6,1.3-1.8,1-3l3.1-1.6c0.1-0.5,0.1-1.4,0.6-1.9c0.4-0.4,1.3-0.3,2.1-0.5
					c-0.5-0.8-0.3-1.9,0.6-2.5c0.6-0.5,1.2-0.9,1.7-1.4c0.3-0.3,0.9-0.6,0.9-1c0.2-1.4,1.3-1.8,2.3-2.3c1.3-0.5,2.4-1.4,3.2-2.6
					c1.8-2.2,4.2-3.9,6.9-4.9c-0.6-1.8-0.4-1.9,1.5-2.2c0.6-0.1,1.1-0.2,1.9-0.4c-0.2-0.2-0.4-0.5-0.6-0.7c-0.2-0.2-0.5-0.4-1-0.8
					c1.6-1.9,2.9-3.9,4.6-5.6c2.5-2.5,3.6-6.1,3.1-9.6c-0.3-0.1-0.5-0.2-0.8-0.2c-2.3,0.1-4.5-0.4-6.5-1.5c-1.1-0.5-2.3-0.9-3.6-1.1
					c-1.3-0.3-1.5-0.6-1.5-2.2c-1.5,1.2-2.8,0.7-4.1-0.3c-0.8-0.6-1.9-0.7-2.6-1.2c-0.5-0.4-0.7-1.2-1.1-1.9
					c-1.9-0.5-3.5-1.7-4.6-3.3c-0.7-0.7-1.5-1.3-2.3-1.8c0-1.5-0.9-2.9-2.3-3.5c-0.1-0.1-0.2-0.2-0.2-0.3c0.2-1.7-1.2-2.2-2.2-3.1
					c-0.2-0.2-0.5-0.5-0.6-0.7c-0.9-1.6-1.7-3.3-2.4-5.1c-0.9-2.5-1.5-5-2-7.5c-0.6-3.8-1.1-7.7-1.3-11.5c-0.3-3.4-0.1-6.8,0.8-10.1
					c0.5-1.7,1.2-3.4,1.9-5.1c0.3-0.8,0.7-1.6,1-2.4c0.4-1.3,1-2.6,1.8-3.7c0.4-0.6,0.6-1.3,0.7-2c0.3-1,0.8-1.1,1.8-0.6
					c0.3-0.7,0.6-1.4,1.1-2c1.4-1.6,2.9-3.1,4.3-4.6c0.7-0.8,1-0.8,2.4-0.2c-0.3-2,0.8-3.9,2.6-4.6c1.5-0.7,2.8-1.8,3.8-3.1
					c1.3-1.3,2.6-2.5,4.1-3.5c0.5-0.4,1-0.9,1.4-1.4c2.1-2.6,4.2-5.3,6.3-8c0.2-0.2,0.4-0.4,0.6-0.6c1.7,0,0.2,2.2,2,2.2
					c-0.3-1.2-0.9-2.4-0.4-3.6c0.1-0.2,0.1-0.6,0.2-0.8c1.2-1.4,1.2-3.2,1.8-4.8c0.1-0.3,0.2-0.7,0.2-1c0.1-1.4,0.1-2.8,0.1-4.2
					c0-0.4-0.1-0.8-0.1-1.2l-4.6-0.3c-0.2-0.5-0.4-0.9-0.6-1.4c-0.1,0-0.2-0.1-0.2-0.1c-2.1,1-3.7-0.9-5.6-1c-0.4,0-0.8-0.4-1.3-0.5
					c-0.7-0.3-1.4-0.5-2-0.8c-0.7-0.3-1.4-0.6-2.1-1.1c-0.8-0.6-1.3-1.3-2.5-1.2c-1.2,0.1-0.8-1.3-1.2-1.9c-2-0.5-3.8-1.7-5-3.4
					c-0.6-0.6-1.3-1.1-2-1.4c-0.4-1-0.9-2-1.4-3c-0.2-0.4-1.1-0.5-1.2-0.8c-0.3-1.8-1.8-2.6-2.8-3.9c-0.9-1.1-0.9-2.9-1.8-4
					c-2.4-3.2-2.2-7-2.9-10.6c-0.6-3.4-1-6.7-1.1-10.1c-0.3-3.1,0-6.3,0.7-9.4c0.5-1.9,1.3-3.6,2-5.5c0.3-0.9,0.7-1.7,1-2.6
					c1.3-2.8,2.4-5.7,5-7.8c0.7-0.8,1.4-1.5,2.1-2.4c0.3-0.3,1.1-0.4,1.3-0.7c0.9-1.5,2.2-2.8,3.8-3.8c0.2-0.1,0.3-0.3,0.4-0.4
					c0.3-1.7,1.6-2.3,3.1-2.8c0.7-0.4,1.3-0.8,1.8-1.3l1,1.7c0.2-0.3,0.4-0.4,0.3-0.4c-0.8-2.8,1.1-4.3,3-5.7c1-0.8,1.9-1.7,2.6-2.7
					c2.4-3.1,4.9-6,7.4-9c1-1.2,1.8-2.7,2.2-4.2c1-3.1,0.4-6.3,0.7-9.4c0.1-1.2,0.1-2.5,0-3.7c2.3-0.9,4.7,0,7-0.2c0,2.6,0,5,0,7.4
					c0,0.8,0,1.6-0.8,2.1c-0.4,0.2-0.5,0.9-0.8,1.5c0.2,0,0.5,0,0.7,0c0.3-0.1,0.5-0.1,0.7-0.2c0.6,1.4,1.2,2.8,1.9,4.2l-1.5,0.3
					l1.3,2.2l1.3-0.5l6.7,7.6l-1.1,1.1c0.3,0.1,0.4,0.3,0.6,0.3c0.5-0.1,1-0.3,1.6-0.6c0.2,0.4,0.5,0.7,0.7,1.1
					c0.2,0.6,0.4,1,1.2,1.1c0.5,0.1,0.5,1.4,1.5,1.1c0.9-0.2,1.5,0.4,2.1,0.9s1.2,1.1,1.8,1.6s1.4,0.9,2,1.4
					c1.4,1.2,2.9,2.3,4.2,3.5c1.4,1.1,2.7,2.4,3.9,3.7c1.4,1.5,2.5,3.3,3.7,4.9c0.7,0.9,1.5,1.8,2.3,2.8c-0.1,0.3-0.4,0.8-0.8,1.6
					l1.2-0.5c0.1,0.1,0.3,0.1,0.3,0.2c0.8,1.3,1.6,2.6,2.4,3.9c0.3,0.5,0.7,1,1,1.5c0.2,0.2,0.4,0.5,0.5,0.8
					c0.4,1.7,0.7,3.4,1.1,5.1c0.1,0.6,0.2,1.2,0.5,1.7c1,1.5,1.4,3.2,1.2,4.9c0,0.5-0.2,1.1,0.1,1.4c0.7,0.8,0.7,2,0,2.8
					c-0.1,0.2-0.1,0.5,0,0.8c0.5,2.8,0.5,5.7-0.1,8.6c-0.9,4.9-2.2,9.6-5.1,13.9c-1.4,2-2.4,4.3-3.8,6.3c-2.9,4.2-6.7,7.7-11.1,10.2
					c-0.6,0.2-1.3,0.3-1.9,0.3c-0.1,0.6-0.8,0.9-1.6,1.3c-3.4,1.4-6.9,2.4-10.5,3.2c-1.6,0.3-3.3,0.5-5,0.6
					c-0.8,0.2-1.7,0.4-2.5,0.7c-0.7,4.8,1.3,8.6,3.8,12.1c0.5,0.7,0.9,1.3,0.8,1.9c1.1,0.9,2.2,1.7,3.1,2.5c1.2,1.2,2.4,2.5,3.6,3.7
					c0.3,0.3,0.6,0.5,1,0.6c1.5,0.2,2.3,1.2,3.1,2.3c0.8,1,1.8,1.8,2.9,2.5c1.3,0.8,2.4,1.8,3.2,3c0.1,0.1,0.2,0.3,0.2,0.3
					c2.4,0.3,3,3.2,5.2,3.8c0.4,0.1,0.6,0.7,0.9,1c1.5,2,2.9,4,4.4,6c0.4,0.5,0.8,0.8,1.2,1.3c0.5,0.4,0.9,0.9,1.2,1.5
					c0.7,2.3,2.3,4,3.6,5.9c0.3,0.4,0.5,0.9,0.6,1.5c0.4,1.7,0.6,3.4,1.1,5c0.4,1,0.8,2,1.3,2.9c0.1,0.2,0.2,0.5,0.2,0.8
					c-0.8-0.2-2-0.6-2.1-0.4c-0.4,0.8-0.7,1.7-0.9,2.6l2.6,0.7c1,1,1,2.2,0.6,3.7c-0.2,1.4-0.2,2.9,0.1,4.4c0.1,1.9,0,3.7-0.5,5.6
					c-0.3,1.8-0.7,3.5-1.1,5.2c-0.6,1.6-1.2,3.2-2,4.8c-0.2,0.5-0.9,0.8-1.2,1c-0.2,0.9-0.5,1.8-0.8,2.7c-1.9,3.6-4.2,7-7,9.9
					c-2.5,2.8-5.6,5-9,6.6c-2.3,1-4.7,1.9-7.1,2.7c-1.8,0.6-3.8,1.1-5.7-0.5c-0.2,0.9-0.3,1.5-0.4,2.1c-2.3,0.1-4.6-0.1-6.8,1.1
					c-0.3,2.3,0.7,4.1,1.7,6c1.9,3.7,4.8,6.6,7.8,9.5c-0.4,1.1-2.2,0.8-2,2.5l3.3-1.2c0.5,0.9,1.4,1.4,2.4,1.4
					c0.5,0.1,1,0.4,1.3,0.8c1.3,1.8,3,3.3,4.9,4.4c0.4,0.3,0.7,0.6,1.1,0.9c2.1,1.7,4.2,3.4,6.2,5.1c0.6,0.6,1.2,1.2,1.7,1.9
					c1.2,1.7,2.4,3.3,3.7,5c0.2,0.3,0.3,0.7,0.6,0.8c2.6,1.6,3,4.6,4.6,6.8c0.2,0.3,0.3,0.8,0.6,1c0.7,0.6,0.8,1.3,1,2.1
					c0.6,1.7,0.5,3.6,1,5.3c0.1,0.5,0.4,0.9,0.7,1.2c1,1.1,0.8,2.6,0.9,4c0.1,0.7,0.2,1.4,0.3,2.1c0,0.1,0.1,0.3,0.1,0.4
					c-0.1,3.3,0,6.6-0.3,9.9c-0.1,1.6-1,3.2-1,4.9c-0.2,1.4-0.6,2.7-1.2,4C100.3,723.2,99.9,723.1,99.7,723.2L99.7,723.2z
					 M68.1,556.2c-0.7,0.1-1,0.4-0.5,1.5C67.8,556.9,67.9,556.5,68.1,556.2c0.7-0.5,0.7-0.5,0.2-1.2
					C68.2,555.5,68.2,555.8,68.1,556.2 M77.9,523.7c-0.3,0.3-1.5,0.3-0.4,1.5C77.7,524.5,77.8,524.1,77.9,523.7
					c0.7,0,1.5,0.4,2.3,0.2c0-0.1,0-0.3,0-0.4L77.9,523.7 M87.2,696.5l1.9-0.4C88.3,695.5,87.5,695.2,87.2,696.5l-2.2-0.3
					c0,0.2,0,0.3,0,0.5L87.2,696.5 M36.1,741.3c0-0.6,0.1-1.2-0.8-1.2c-0.1,0-0.3,0.3-0.4,0.5L36.1,741.3l-0.7,1.9
					c1.1-0.5,1.8-0.8,2.8-1.3c-0.6-0.2-0.9-0.3-1.1-0.4C36.7,741.5,36.4,741.4,36.1,741.3 M50,674.1l-1.8-1.3c0.1,0.8,0.1,1.4,0.2,2
					L50,674.1c-0.2,1.7-0.2,1.7,2.7,1.8C51.6,675.1,50.8,674.6,50,674.1 M66.1,471.8c0.1,0.6,0.8,1.1,1.4,0.9c0,0,0,0,0,0
					C67.4,471.6,66.5,472,66.1,471.8c0.1-1,0.4-2.2-0.7-3.1c-0.2,0.8-0.5,1.5-0.7,2.2C65.2,471.3,65.6,471.5,66.1,471.8 M37.9,715
					c-0.6,0.2-1.8-0.9-1.9,0.7l1.8,1.4C37.8,716.3,37.9,715.6,37.9,715c0.4,0.2,0.8,0.4,1.3,0.5c0.2,0,0.6-0.2,0.8-0.4
					c0.1-0.2,0.1-0.3,0-0.5c-0.3-0.1-0.6-0.2-0.9-0.1C38.7,714.6,38.3,714.8,37.9,715 M31.4,480.3c0.8-0.3,1.9-0.3,1.9-1.6
					c-1.5-1.1-3.6-0.8-4.7,0.7c0,0-0.1,0.1-0.1,0.1L31.4,480.3L31.4,480.3z M84.4,497.8H83c0,1,0.7,2-0.1,2.9
					c-0.1,0.2,0.3,1,0.6,1.4c0.2,0.3,0.8,0.3,1.2,0.5c0.3-1.1-0.9-2.2,0.3-3.2C85.2,499.3,84.7,498.4,84.4,497.8 M67.7,713.5
					c0.2,0.6,0.8,1.4,0.6,1.9c-0.4,1.2,0.5,1.3,1.1,1.8c0.1-0.9,0.1-1.7,0.2-2.2c0.8-0.8,2.3,0.8,2.1-1.2
					C70.3,714.5,69.3,712.1,67.7,713.5 M64.3,503.6c1.5-3.5,1.5-3.5,0-4.6c-0.8,0.5-1.9,0.9-1.7,2.4l1.8-0.3
					C64.4,502.1,64.4,502.9,64.3,503.6 M40.7,510.7c-0.3,0.1-0.7,0.2-0.7,0.4c-0.1,1.2-0.1,2.3,0,3.5c0.2,0.8,0.4,1.5,0.7,2.2
					c0.6,0.1,1.4,0.6,1.9-0.5l-1.3-0.5c-0.3-0.9-0.5-1.8-0.7-2.7C40.6,512.5,41.7,511.8,40.7,510.7 M56.5,679.7
					c-1.2,0.8-2.1,1.4-3,2c0.1,0,0.3,0.1,0.4,0.1c0.2,0.1,0.5,0.3,0.7,0.4c0.5-0.8,1.7-1.1,2.5-0.6c0.6,0.4,1.1,1.2,2.3,0.7
					C57.9,681.8,58.2,679.7,56.5,679.7 M48.1,488.8c-0.9,1.8-0.6,3.4,1,4.4l0.8-3.4c-0.4-0.2-0.7-0.3-0.9-0.4
					C48.7,489.2,48.4,489.1,48.1,488.8 M55.1,563c0.6-1.1,0.9-2.4,0.7-3.7c0-0.2-0.4-0.2-0.6-0.4c-0.8,1.5-0.8,1.5-2.4,1.4L55.1,563
					 M31.8,506.8c-0.9-1.2-1.8-1.8-2.2-1.4c-0.8,0.8-2.7,0.6-2.7,2.7c1-0.4,1.7-0.8,2.5-1.1S31,508,31.8,506.8 M88.6,488.3
					c-0.6-0.1-0.7-1.6-1.8-0.9c0.3,1.2,0.5,2.3,0.8,3.5l3.5-0.4c-0.9-1.7-1.5,0.1-2.5-0.3L88.6,488.3z M86,509.5
					c-0.4-0.4-0.7-0.9-1.1-1c-0.6,0-1.3,0.2-1.9,0.5c-0.6,0.2-1.2,0.5-1.9,0.9l0.3,0.8L86,509.5 M88.7,717.5
					c1.9-1.5,1.9-1.5,1.9-3.3c-1.6-0.3-0.1,1.4-1.2,1.5l-0.9-1.2C88,715.4,88.1,716.6,88.7,717.5 M40.4,574c1.4-0.8,1.5-1.4,0.3-3.3
					c-0.5,0.4-1,0.9-1.5,1.3C39.6,572.6,40,573.2,40.4,574 M58.9,574.9c0.8,1.4,1.3,3,3.6,2.6C61.4,576.4,61,574.7,58.9,574.9
					 M66.4,627.1c0.4,1.6,0.6,2,1.3,1.8c0.8-0.2,1.2-1,1.1-2.6L66.4,627.1 M58.5,699.5c0.8,0.9,1.6,1.7,2.3,2.5
					c1.1-1.1,0-1.8-0.4-2.5C59.9,698.7,59.2,698.7,58.5,699.5 M72.6,695.8c-0.4-1.4-1.4-1.2-2.3-1.3c-1,0.8-0.2,1.5,0.1,2.3
					L72.6,695.8 M56.5,447.4c-0.4,0.8-0.2,1.8,0.5,2.4c0.5,0.3,1,0.6,1.3-0.1c0.1-0.4,0-0.8-0.3-1.2
					C57.6,448.1,57.1,447.7,56.5,447.4 M72.5,629.2c0.4,0.3,0.8,0.6,1.2,0.9c0.2,0.3,0.4,0.7,0.5,1.1c0.2,0.4,0.3,0.9,0.4,1.3
					c0.1,0.4,0.3,0.7,0.7,1.4C75.1,629.9,74.4,628.7,72.5,629.2 M23.5,594.7c-0.1,0.1-0.2,0.1-0.3,0.2c-0.5,0.5-1.1,1.2-0.2,1.5
					c0.6,0.3,1.6-0.1,2.4-0.2c-0.1-0.3,0-0.7-0.2-0.8C24.6,595.1,24.1,594.9,23.5,594.7 M76.3,488.9c-0.5,0.4-0.3,1.3,0,1.2
					c1.2-0.4,1.4,0.6,1.7,1.4c0.9-1,0.9-1,0.7-1.9L76.3,488.9 M31.1,598.9c-0.8-0.2-1.3-0.4-2-0.5c0,2.3,0,2.3,1,2.8
					C30.4,600.5,30.7,599.8,31.1,598.9 M40.1,471c0.9-0.5,1.3-0.7,1.8-0.9c-1.2-1.1-1.9-2.6-3.7-3c0.1,0.8,0.4,1.4,1.1,1.6
					C40.5,468.9,40.7,469.6,40.1,471 M40.3,671.1c1.1-0.3,2-0.6,3-0.8l-2.9-1.3C40.4,669.7,40.4,670.3,40.3,671.1 M34,576.3
					c-2.2,0-2.2,0-2.3,1.1c0.5-0.2,1-0.2,1.5-0.2c0.4,0.1,0.7,0.6,1,0.9C35,577.2,34.4,576.8,34,576.3 M79.9,483.1l1.4,0.2
					c0.2-1-0.5-2,0.6-2.7c0,0-0.3-0.6-0.6-1.3C80.8,480.8,80.4,481.9,79.9,483.1 M62.4,507.1c0.7,0.3,1.6,0,1.9-0.7c0,0,0-0.1,0-0.1
					c0.4-0.7,0.1-1.1-0.6-1.6L62.4,507.1 M50.4,743.4l-0.6,0l-0.8,2.1l1.4,0.9L50.4,743.4z M18.6,484.4c0.8,0.2,1.3,1.3,2.1,0.4
					c0.3-0.3,0.4-0.8,0.1-1.1c-0.1-0.1-0.2-0.2-0.3-0.2C19.7,483,19,483.1,18.6,484.4 M45.9,564.6c-1.7,1.6-1.7,1.6-0.7,2.4l1.7-1.6
					L45.9,564.6 M55.4,589.7c0.4,0.4,0.7,1,1,1c0.9,0,1.8-0.1,2.6-0.3C58,589.5,56.6,589.2,55.4,589.7 M56.7,418.7
					c0,0.9,0.4,1.7,1.2,2.2c0.3,0.1,0.6,0.1,0.9,0c0.2-0.3,0.2-0.6,0.1-0.9C58.4,419.3,57.6,418.8,56.7,418.7 M68.9,581.4
					c0-0.8,0.1-1.5-0.8-1.6c-0.3,0-0.8,0.2-0.8,0.3c-0.1,0.7-0.1,1.4,0,2.1L68.9,581.4 M72.7,577l0.5,0.3l1.6-0.9
					c-0.5-0.8-0.8-1.6-1.6-1C72.9,575.7,72.9,576.4,72.7,577 M36,681c0.4,0.3,0.8,0.6,1.1,0.9c0.3,0.4,0.6,0.9,0.8,1.3
					c1.2-1.1-0.3-1.5-0.3-2.3c0-0.2-0.6-0.5-1-0.6C36.5,680.3,36.3,680.7,36,681 M101,490.9c0.5-0.6,0.8-1.2,0.1-1.3
					c-0.8-0.1-0.9-0.5-1.3-1c-0.4-0.7-0.8-0.3-1.2,0.3L101,490.9 M84.9,569.9c1.3,0.7,1.9,0.2,2.3-1.6
					C86.1,568.1,85.1,568.8,84.9,569.9C84.9,569.9,84.9,569.9,84.9,569.9 M93.7,507c0.5-1.3,0.8-2.2,1.2-3.5
					c-0.6,0.3-1.1,0.4-1.2,0.6C93.4,504.9,92.7,505.6,93.7,507 M23.1,476.9l2.1,1.7l0.8-0.7c-0.6-0.3-1.1-0.7-1.6-1.1
					C23.9,476.2,23.5,476.2,23.1,476.9 M50.6,687.4l-2.4-0.5c0.1,0.7,0.1,1.4,0.3,1.5C49.4,689,49.8,688,50.6,687.4 M38.5,626.1
					L39,626c0-0.4,0.1-0.9-0.1-1.1c-0.6-0.6-1.2-1-2.1-0.1L38.5,626.1 M62.8,530.3c0.3-0.5,0.6-0.9,1-1.4c-0.8-0.7-1.9-0.6-2.6,0.2
					c0,0,0,0,0,0.1C61.8,529.6,62.2,529.9,62.8,530.3 M62.5,744.1l-1.6,2.2c0.5,0.3,1,0.3,1.2,0.1C62.5,745.8,63.4,745.3,62.5,744.1
					 M51.7,455.1c0.8,2.1,1.5,2.5,2.7,1.5L51.7,455.1 M57.6,594.5c-0.1-0.1-0.1-0.3-0.2-0.4c-0.5,0.1-1.2-0.1-1.4,0.2
					c-0.5,0.5-0.4,1.3,0.1,1.8c0,0,0.1,0.1,0.1,0.1L57.6,594.5 M37.5,515.2c-0.4-0.8-0.6-1.2-0.8-1.5l1-1.2
					c-0.9-0.6-1.2-0.3-1.5,0.4C35.9,513.8,35.9,514.6,37.5,515.2 M80.3,721.3c0.3,0.4,0.5,0.9,0.6,1.4c0.2,0.9,0.6,1.1,1.3,0.7
					C81.3,721.1,81.3,721.1,80.3,721.3 M42.5,666.2l-3,0.4l2.1,1.4C41.9,667.3,42.1,666.9,42.5,666.2 M55.9,677c1-1.2,0-2.1-0.2-3.2
					l-0.5,0.1L55.9,677 M59.3,483.8c-0.3-0.9,1.3-1.7,0-2.7C58.8,482.1,58.2,482.9,59.3,483.8 M61,514.7c-2.2-1.2-3-1.2-3.7,0H61z
					 M30.3,568.4c-0.6,0.5-0.9,1.1-0.2,1.6c0.4,0.3,0.9,1.1,1.6,0.3L30.3,568.4 M54.5,650.1l2.5,1.3
					C55.8,649.2,55.8,649.2,54.5,650.1 M67.3,602.6c0.5-1.1-0.1-1.7-0.7-2.4C66.1,601.9,66.1,601.9,67.3,602.6 M40.9,591.6
					c0.5,0.4,1.2,0.2,1.6-0.3c0.1-0.1,0.2-0.3,0.2-0.5c0.2-0.6,0.2-1.5-1.1-1.5l0.6,1.3L40.9,591.6 M42.7,585.3v3
					C43.9,587.2,43.9,587,42.7,585.3 M21.5,700.6c-0.6-0.8,0.5-1.6-0.6-2.3c-0.3,0.7-0.5,1.3-0.8,2L21.5,700.6 M62.6,750.1
					c0.3-1.2,1.7-1.2,1.4-2.3C62.5,748.1,62.5,748.1,62.6,750.1 M90.7,710.3c0.1,0.8,0.4,1.4,1.3,1.2c0.3-0.1,0.7-0.7,0.6-0.9
					C92.2,709.7,91.5,709.9,90.7,710.3 M66.8,746.9c0.3,0.5,0.5,0.8,0.7,1.1c0.1,0.1,0.2,0.1,0.4,0.1c0.1-0.8,0.3-1.5,0.4-2.2
					c0-0.1-0.2-0.1-0.3-0.3L66.8,746.9 M43.5,558.1l-2.6-0.5c0.5,0.8,0.7,1.2,0.9,1.8L43.5,558.1 M85.9,735.4l-2.5,0.8
					C84.3,736.2,85.5,737.6,85.9,735.4 M33.1,602.4c-2,0.1-2.2,0.4-1.6,1.7L33.1,602.4 M23.9,580.8c-0.9,0-1.4-0.2-1.7,0
					c-0.3,0.2-0.3,0.7-0.4,1.1c0.4,0,0.8,0,1.2-0.1C23.2,581.8,23.4,581.4,23.9,580.8 M21.4,581.8c-1.9,0.8-2,1-0.9,2.2
					C20.7,583.3,20.9,582.8,21.4,581.8 M42.8,483.9l1.3,1.2l0.3-0.2c-0.1-0.7-0.3-1.4-0.5-2.5L42.8,483.9 M35.9,676.5
					c-1.4-0.9-2-0.5-2.1,1.1L35.9,676.5 M42,467.6l2.9,1.5C43.3,467.2,43.3,467.2,42,467.6 M74.2,590.6c-1.6,1.1-1.6,1.6-0.3,2.3
					C74.1,592.1,74.1,591.5,74.2,590.6 M48.6,483.4c-0.1,0.6-0.1,0.9-0.2,1.2c0,0.3,0,0.7,0,1.2C49.8,484.7,49.8,484.7,48.6,483.4
					 M48.5,702c-0.7-1.4-0.7-1.4-1.9-0.7C47.2,701.8,47.5,702.7,48.5,702 M92.4,626.2l2.3-1.4C93,624,93.1,625.7,92.4,626.2
					 M43.1,701.9c0.2-0.9,0.4-1.5,0.6-2.1l-0.3-0.1c-0.4,0.5-0.8,1.1-1.3,1.7L43.1,701.9 M56.9,446.1c0.2-0.7,0.9-1.5-0.2-1.8
					c-0.2-0.1-0.6,0.3-0.9,0.6L56.9,446.1 M58.3,639.2c-1.5-0.9-1.5-0.9-1.9,0.4L58.3,639.2 M66.6,521.5l-1,1.9
					C67.2,522.6,67.2,522.6,66.6,521.5 M98.1,477.9c-0.2-0.9-0.3-1.3-0.4-1.9l-1.8,0.7C96.7,477.1,97.2,477.4,98.1,477.9
					 M29.3,722.3c-1,0.6-1,0.7-0.1,2.7C29.2,724.1,29.3,723.2,29.3,722.3 M35.1,726.4c-1.5-0.8-1.7-0.7-1.9,0.9
					c0.2-0.2,0.5-0.4,0.8-0.6C34.3,726.6,34.7,726.5,35.1,726.4 M27.8,501c1.5-0.7,1.8-1.1,1.6-2.5C29,499.3,28.5,500,27.8,501
					 M85.8,596.5c0.1-0.1,0.1-0.3,0.2-0.4l-2-0.8c-0.1,0.1-0.1,0.3-0.2,0.4L85.8,596.5 M90.8,483.2l0.4,0v-2.1l-1,0.1
					C90.4,481.9,90.6,482.6,90.8,483.2 M91.5,606.6c0.7-0.5,1.1-0.8,1.6-1.1C91.4,604.6,91.3,604.7,91.5,606.6 M71.9,727.7
					c-0.1-0.7,0.3-1.4-0.6-1.8C70.6,727.5,70.6,727.5,71.9,727.7 M58.7,736.9c-0.8,1.3-0.9,1.6-0.5,2.4
					C58.4,738.4,58.5,737.7,58.7,736.9 M96.1,591.3c-1.4,0.8-1.5,1,0,1.9V591.3z M68.5,617.6c-0.1-0.7-0.2-1.3-0.2-1.8
					C67.9,616.4,66.9,617.1,68.5,617.6 M48.9,496.6c-0.1,0.1-0.2,0.3-0.4,0.4l1.1,1.1l0.9-1L48.9,496.6 M70.5,518.3
					c0.3,0.7,0.6,1.3,0.9,2C72.2,519.2,72.2,519.2,70.5,518.3 M89.6,499.6c1.8,0,2-0.2,1.4-1.5L89.6,499.6 M86.3,585.5l1.7,0.3
					c-0.2-0.6-0.3-0.9-0.4-1.5L86.3,585.5 M41.7,574.6c-1.4,0.6-1.4,0.8-0.4,1.8C41.4,575.8,41.6,575.3,41.7,574.6 M72.9,491.1
					c0.6,0.8,0.9,1.7,1.9,0.7C74.4,491.2,74.1,490.7,72.9,491.1 M42.1,633.3c-0.1-0.2-0.3-0.3-0.4-0.5c-0.5,0.4-1.7,0.1-1.3,1.7
					L42.1,633.3 M51.4,733.4l-1.2-1.3C49.8,733.4,50.4,733.6,51.4,733.4 M21.1,490.7c0.6,0.6,1.1,1,1.7,0.2
					C22.4,490.3,21.9,489.8,21.1,490.7 M25.1,700.5c0.1-0.2,0.1-0.3,0.2-0.5c-0.8,0-1.4-0.9-2.8-0.2L25.1,700.5 M51.4,460.8
					c0-0.3,0.1-0.5,0.2-0.8l-1.2-0.3c-0.1,0.3-0.1,0.6-0.2,0.9L51.4,460.8 M53.7,703.3c0.3,0.4,0.6,0.8,1.1,1.4
					c0.2-0.7,0.4-1.2,0.3-1.5C54.9,702.8,54.4,702.5,53.7,703.3 M81.5,486.8c-0.3-0.8-0.6-1.2-1.3-0.8c-0.1,0.1-0.2,0.3-0.2,0.5
					C80.2,487.3,80.7,487.2,81.5,486.8 M66.6,493.4c0.6-1.2,0.6-1.3-0.9-1.6L66.6,493.4 M85.1,732.8l-2.1-0.6
					C83.5,732.8,83.8,733.7,85.1,732.8 M96.9,482.2c0.1-1.4,0.1-1.4-1-1.8C96.3,481.1,96.5,481.5,96.9,482.2 M70.2,483
					c0.8,0.5,1.8,0.7,2.8,0.4c-0.9-0.3-1.4-0.5-1.9-0.7C71,482.7,70.9,482.8,70.2,483 M58.1,580.6c-1.4-0.2-1.3,0.5-1.1,1.6
					L58.1,580.6 M59.9,510.9c-0.4-0.3-0.7-0.6-0.9-0.5c-0.3,0.1-0.5,0.5-0.7,0.7c0.2,0.2,0.5,0.6,0.7,0.6
					C59.3,511.7,59.5,511.3,59.9,510.9 M20.8,500c-0.1,0.2-0.2,0.3-0.3,0.5l2,1.1C22.5,500,21.4,500.4,20.8,500 M60.6,599.2
					c-0.3-0.4-0.5-0.8-0.6-0.8c-0.3,0.1-0.6,0.3-0.9,0.5c0.2,0.2,0.3,0.6,0.5,0.6C59.8,599.6,60.1,599.3,60.6,599.2 M22.7,606.8
					c0.1,0.1,0.3,0.2,0.4,0.3c0.3-0.4,0.7-0.8,1.1-1.4C22.9,605.5,22.9,606.3,22.7,606.8 M29.1,608.9c-0.8,0.2-1.7,0.4-0.9,1.5
					L29.1,608.9 M36.5,488.4l-1.3,1.9C36.6,490.1,36.6,490.1,36.5,488.4 M29,700.1l0.7-0.2c-0.1-0.4-0.3-0.8-0.5-1.2
					c-0.2,0-0.4,0.1-0.6,0.2C28.8,699.3,28.9,699.7,29,700.1 M46.2,457.8c0.6,1,1.1,1.2,1.7,0.3c0-0.1-0.1-0.2-0.1-0.4L46.2,457.8
					 M18.8,702.7c0.2,0.8,0.4,1.2,0.5,1.8C20.1,703.6,20.1,703.6,18.8,702.7 M72.4,594.2c-0.2,0.3-0.4,0.7-0.6,1.1
					c0,0.1,0.4,0.4,0.5,0.4c0.2-0.2,0.4-0.4,0.6-0.7C72.9,594.9,72.6,594.6,72.4,594.2 M40.5,689.3c-0.2-0.9-0.2-0.9-1.9-1.2
					L40.5,689.3 M95.6,714.5c0.7,1.2,0.7,1.2,1.7,1.3L95.6,714.5 M69.7,673.3l1.9,1.7C71.2,674.2,71,673.2,69.7,673.3 M70.4,721.3
					c0.1,0.1,0.2,0.2,0.3,0.3c0.4-0.5,1.3-0.8,0.7-2.1C71,720.2,70.7,720.8,70.4,721.3 M61.5,483.8l-0.5,0v1.1l0.7,0
					C61.7,484.5,61.6,484.1,61.5,483.8 M71,510.9c0.5-0.4,0.8-0.7,1-1c0,0-0.2-0.4-0.3-0.4C71.1,509.6,70.7,509.8,71,510.9
					 M59.8,504.6v-1.3l-1.4,0.4L59.8,504.6 M51.7,750.1l0.7-2C51.3,748.5,51,748.9,51.7,750.1 M90.5,506.2c-1-0.4-1.3-0.1-1.4,1
					C89.7,506.7,90.1,506.5,90.5,506.2 M63.6,578l2.2,1.4C64.7,577.7,64.7,577.7,63.6,578 M49.7,666.1l-1.7,0.2
					C48.7,667.7,49.1,667,49.7,666.1 M51.6,578.5c-0.2-1.4-0.2-1.4-1.3-1.7C50.8,577.5,51.1,577.9,51.6,578.5 M57.5,744.8l0.5-0.1
					c-0.1-0.5-0.3-1-0.4-1.6l-0.6,0.2C57.2,743.8,57.4,744.3,57.5,744.8 M33.6,731.6c1.2,0.3,1.2,0.3,1.1-0.8L33.6,731.6
					 M77.1,508.2c0,0.2-0.1,0.5-0.1,0.7l1.5,0.1l0.1-0.5L77.1,508.2 M72.6,735.6c-0.9-0.3-1.4-0.5-1.7,0.1c-0.1,0.1,0,0.3,0.1,0.7
					C71.5,736.2,71.9,736,72.6,735.6 M70.6,737.5c-0.3,0.5-0.6,0.7-0.6,0.9c0,0.3,0.1,0.5,0.2,0.8l0.3-0.1L70.6,737.5z M53,730.4
					c0.3,0.2,0.5,0.5,0.7,0.5c0.2,0,0.4-0.3,0.5-0.5c-0.2-0.1-0.3-0.4-0.5-0.4C53.5,729.9,53.3,730.2,53,730.4 M34.8,566.3l0,0.4
					c0.5,0.1,1,0.4,1.6-0.5L34.8,566.3 M84,583.3l0.2,0.5l1.2-0.6c-0.1-0.1-0.1-0.3-0.2-0.4L84,583.3 M79.1,587.6
					c0.2-0.3,0.5-0.6,0.4-0.7c-0.1-0.2-0.4-0.3-0.5-0.5c-0.1,0.2-0.4,0.4-0.4,0.6C78.6,587.1,78.9,587.3,79.1,587.6 M30.7,588.7
					c0.5-0.9,0.5-0.9,0.3-1.4c0-0.1-0.2,0-0.6-0.1C30.5,587.6,30.6,588.1,30.7,588.7 M44.6,677.6c0.2,0.6,0.3,1.1,1,0.7
					c0.2-0.2,0.5-0.4,0.7-0.6C45.6,677.7,45.2,677.6,44.6,677.6 M49.2,500.5l-0.1,0.6l1.3,0.2l0.1-0.5L49.2,500.5 M75.2,472.3
					c1.3-0.2,1-0.9,0.9-1.5c0-0.1-0.2-0.1-0.4-0.2C75.6,471.1,75.5,471.6,75.2,472.3 M76,687.1c-0.3-0.2-0.6-0.4-0.8-0.4
					c-0.2,0-0.4,0.3-0.6,0.5c0.2,0.2,0.5,0.4,0.7,0.5C75.5,687.8,75.7,687.4,76,687.1 M91.5,686.9c0,0.2,0,0.4,0.1,0.6L93,687
					c0-0.1-0.1-0.3-0.1-0.4L91.5,686.9 M90.4,492.2l-0.1-0.6c-0.4,0.1-0.8,0.3-1.1,0.4c0,0.1,0,0.2,0.1,0.3
					C89.6,492.4,90,492.3,90.4,492.2 M60.7,597.5l1.5,0.9C62,597.7,61.8,597,60.7,597.5 M95.1,688.9c-1-0.6-1-0.6-1.7,0H95.1z
					 M95,706c-0.2-0.4-0.4-0.9-0.6-1.3c0,0-0.5,0-0.5,0.1C93.7,705.5,94.1,705.7,95,706 M27.6,694.4c0.8-0.8,0.8-0.8-0.2-1.5
					C27.5,693.4,27.5,693.8,27.6,694.4 M43,527.2c1.2,0.2,1.2-0.4,1.3-1.5L43,527.2 M42.6,705.5c-0.1-1.2-0.1-1.2-1-1.4
					C42,704.5,42.2,704.9,42.6,705.5 M81.7,519l0.4-0.2l-0.6-1.1l-0.3,0.2L81.7,519z M35.1,674.2l0.4,0.1l0.3-1.1l-0.5-0.1
					C35.2,673.5,35.1,673.9,35.1,674.2 M80.9,724.1c-0.8,0.7-0.5,1.2,0,1.8V724.1z M59.4,665.9l0.6-0.6l-1-0.7
					c-0.1,0.1-0.2,0.3-0.3,0.4C58.9,665.3,59.1,665.6,59.4,665.9 M78.1,478.4l-0.3,0.1c0,0.4,0.1,0.8,0.1,1.2c0,0.1,0.4,0.1,0.9,0.2
					L78.1,478.4 M57.8,733.7l-0.3-0.1c-0.1,0.4-0.2,0.7-0.4,1.1l0.3,0.1L57.8,733.7 M76.3,741.7c0.4,0.8,0.4,0.8,1.2,0.7L76.3,741.7
					 M58,652.3c-0.1,0.5-0.7,1,0.4,1.3C58.2,653,58.1,652.6,58,652.3 M61.1,558.3l0.6,0.3c0.1-0.2,0.2-0.5,0.3-0.7
					c0-0.3,0-0.6,0-0.9c-0.4,0.3-0.7,0.4-0.8,0.6C61.1,557.8,61.1,558.1,61.1,558.3 M60.9,567.8l0.5-0.5c-0.3-0.2-0.6-0.4-0.9-0.6
					c0,0-0.2,0.2-0.2,0.3C60.4,567.2,60.6,567.5,60.9,567.8 M55.1,629.6c0.2-0.2,0.3-0.5,0.3-0.8c0-0.1-0.3-0.4-0.4-0.4
					c-0.2,0.1-0.5,0.3-0.5,0.5C54.6,629.1,54.9,629.3,55.1,629.6 M66.9,604.1l-1.7-1C65.4,604.4,65.8,604.5,66.9,604.1 M59.2,578.3
					l-0.4-0.1c-0.1,0.4-0.2,0.8-0.3,1.2l0.2,0.1L59.2,578.3 M21.3,594.9c-0.6-1.2-0.9-1.2-1.5-0.3L21.3,594.9 M99.7,496.5l-0.3,0.2
					c0.2,0.3,0.3,0.7,0.5,1l0.4-0.2C100,497.1,99.8,496.8,99.7,496.5 M70.5,591.3c0.1-0.2,0.3-0.3,0.3-0.5c0-0.1-0.2-0.2-0.3-0.4
					l-0.5,0.5L70.5,591.3 M31.7,594.4l0.5,0.2l0.3-1.1l-0.3-0.1C32.1,593.7,31.9,594,31.7,594.4 M27.5,586.7l-0.3-0.3l-0.7,1.3
					c0.1,0.1,0.2,0.1,0.3,0.2C27,587.5,27.2,587.1,27.5,586.7 M67.3,585.5l0.2,0.3l0.8-0.6l-0.2-0.3L67.3,585.5 M31.4,504.8l0.4-0.1
					c-0.1-0.3-0.2-0.5-0.3-0.8c0,0-0.2,0-0.3,0C31.2,504.2,31.3,504.5,31.4,504.8 M63.3,496.8l0.4,0.1c0-0.3,0.1-0.6,0.1-1
					c-0.1,0-0.3,0-0.4-0.1C63.4,496.2,63.3,496.5,63.3,496.8 M32.8,506.2l0.5,0.2c0.1-0.3,0.1-0.6,0.2-0.9c0,0-0.3-0.1-0.3-0.1
					C33.1,505.6,33,505.9,32.8,506.2 M38.7,505.7c-0.7-0.2-1.3-0.2-1.2,0.9L38.7,505.7 M95.9,580.5c-0.1,0.3-0.2,0.6-0.2,0.8
					c0,0.1,0.2,0.2,0.4,0.4c0.1-0.2,0.4-0.3,0.4-0.5C96.4,581,96.2,580.8,95.9,580.5 M18.4,611.7c-0.1-0.1-0.2-0.2-0.3-0.3l-0.7,0.6
					c0.1,0.1,0.2,0.2,0.3,0.3C18,612.1,18.2,611.9,18.4,611.7 M54.9,615.8c0.2-0.2,0.4-0.4,0.4-0.5c-0.1-0.2-0.2-0.3-0.4-0.3
					c-0.1,0-0.3,0.1-0.5,0.2C54.6,615.4,54.7,615.6,54.9,615.8 M28.8,576.5c0.1-0.2,0.2-0.5,0.3-0.7c0-0.1-0.4-0.3-0.4-0.3
					c-0.2,0.2-0.3,0.4-0.4,0.6C28.3,576.1,28.5,576.3,28.8,576.5 M58.7,621.7l0.5-0.1c-0.1-0.3-0.2-0.7-0.3-1l-0.4,0.1
					C58.5,621,58.6,621.3,58.7,621.7 M25.2,623.9c-0.1-0.2-0.2-0.4-0.4-0.4s-0.3,0.1-0.5,0.2c0.1,0.2,0.2,0.4,0.3,0.6L25.2,623.9
					 M90.9,571c-1,0-1.4,0.3-1.4,1.3L90.9,571 M63.9,630.9l-1.5,0.3C63.2,632,63.6,631.5,63.9,630.9 M45.7,509.3
					c0.1-0.1,0.1-0.2,0.2-0.3l-0.9-0.4l-0.1,0.3L45.7,509.3 M33.1,487.3c0.2-0.3,0.4-0.4,0.4-0.6c0-0.1-0.2-0.3-0.3-0.4
					c-0.2,0.2-0.4,0.3-0.5,0.5C32.7,486.7,32.9,486.9,33.1,487.3 M56.8,641.7l0.4,0.4l1-0.9l-0.3-0.4L56.8,641.7 M74.1,741.9
					l0.5-0.2l-0.6-1.2l-0.3,0.1C73.8,741.1,74,741.5,74.1,741.9 M51.4,512.8c0.1-0.1,0.2-0.2,0.3-0.3l-0.6-0.6
					c-0.1,0.1-0.1,0.1-0.2,0.2L51.4,512.8 M65.7,740.2l0.3,0.2l0.6-1c-0.1-0.1-0.2-0.1-0.3-0.2C66.1,739.6,65.9,739.9,65.7,740.2
					 M92.2,479.2c-0.2-0.2-0.5-0.3-0.7-0.4c-0.1,0-0.3,0.2-0.4,0.3c0.2,0.2,0.4,0.3,0.6,0.4C91.7,479.7,91.9,479.4,92.2,479.2
					 M46.4,729.6c-0.2-0.2-0.3-0.3-0.5-0.4c0,0-0.3,0.3-0.3,0.4c0.1,0.2,0.2,0.4,0.3,0.5L46.4,729.6 M81,473.9l-0.5,0
					c0,0.3,0,0.5,0.1,0.8c0.2,0,0.3,0,0.5,0C81,474.5,81,474.2,81,473.9 M31.2,520l-0.3-0.1c-0.1,0.3-0.2,0.6-0.3,0.9l0.4,0.1
					L31.2,520 M77.6,676.1c0.1-0.2,0.3-0.4,0.3-0.5c0-0.1-0.2-0.3-0.3-0.4c-0.1,0.1-0.3,0.3-0.3,0.4S77.5,675.8,77.6,676.1
					 M64.3,716.4c-0.1,0.1-0.1,0.2-0.2,0.3c0.2,0.2,0.5,0.4,0.8,0.5c0.1-0.1,0.2-0.2,0.2-0.3L64.3,716.4 M45.3,521
					c-0.1,0.2-0.3,0.4-0.3,0.5c0,0.1,0.2,0.3,0.3,0.4c0.1-0.2,0.3-0.4,0.3-0.6C45.7,521.3,45.4,521.2,45.3,521 M28.1,714.3
					c0.9,0.1,1.4,0.1,1.3-0.8L28.1,714.3 M96,712.5c-0.2,0.3-0.3,0.6-0.5,1c0,0,0.2,0.2,0.3,0.2c0.2-0.1,0.4-0.2,0.6-0.4
					C96.4,713.1,96.2,712.9,96,712.5 M69.7,530.9l0.4-0.2c-0.1-0.2-0.1-0.4-0.1-0.6c0-0.2-0.1-0.5-0.2-0.7c-0.2,0.1-0.3,0.3-0.5,0.4
					C69.4,530.2,69.5,530.5,69.7,530.9 M65.9,464.5l-0.5-0.2c-0.2,0.3-0.3,0.7-0.5,1c0.1,0.1,0.3,0.2,0.3,0.1
					C65.5,465.1,65.7,464.8,65.9,464.5 M34.6,461.5l0.3,0.3l0.7-0.6l-0.2-0.2L34.6,461.5 M54.9,700.3l-0.4,0.4l0.8,0.6
					c0.1-0.1,0.2-0.2,0.2-0.3C55.3,700.8,55.1,700.5,54.9,700.3 M31.7,458.8l0.4,0.3l0.6-0.8l-0.3-0.3
					C32.2,458.3,32,458.6,31.7,458.8 M59,443.3c-0.3-0.2-0.6-0.3-0.9-0.4c-0.2,0-0.3,0.1-0.5,0.2c0.1,0.2,0.2,0.5,0.4,0.5
					C58.3,443.6,58.5,443.4,59,443.3 M78.7,699.5l0.4-0.3c-0.2-0.3-0.4-0.6-0.6-0.9l-0.3,0.2C78.4,698.9,78.6,699.2,78.7,699.5
					 M47.1,699.1l0.4-0.1c-0.1-0.3-0.2-0.6-0.4-0.9c-0.1,0-0.2,0-0.3,0.1C46.9,698.5,47,698.8,47.1,699.1"/>
			</g>
		</g>
	</g>
	<g id="Grupo_4416" transform="translate(1640 876)">
		<g>
			<defs>
				<rect id="SVGID_00000145754505313474631670000006497019723651345051_" x="15.1" y="416.7" width="321.9" height="321.6"/>
			</defs>
			<clipPath id="SVGID_00000100362450956736085870000007492268068373479318_">
				<use xlink:href="#SVGID_00000145754505313474631670000006497019723651345051_"  style="overflow:visible;"/>
			</clipPath>
			
				<g id="Grupo_4415" transform="translate(0 0)" style="clip-path:url(#SVGID_00000100362450956736085870000007492268068373479318_);">
				<path id="Trazado_8230" class="st1" d="M319.1,504c-1.4,0.8-2.4,1.3-3.3,1.8c0.3,0.4,0.5,0.8,0.8,1.2c0.9-0.2,1.8-0.4,3.4-0.7
					c2.2,4.7,4.5,9.5,6.7,14.3c-1.4,1.2-2.5,2.1-3.6,3c1,1,1.8,2.6,2.9,2.9c2.7,0.7,3.4,2.5,4.1,4.7c12.1,40.9,8.4,80.4-10.6,118.5
					c-10.7,21.4-26.1,40-45.2,54.5c-15.4,11.8-32.3,20.9-51.2,25.9c-3.6,1-6.9,3.9-11.3,2c-0.9-0.4-2.5,1.9-4,2.2
					c-11.1,2-22.1,4.2-33.4,3.9c-0.7-0.1-1.5-0.2-2.2-0.3c-0.2-2.3-0.5-4.5-0.7-6.7c-0.3,0-0.7,0-1-0.1c-0.6,2.2-1.2,4.3-1.8,6.9
					c-4.1-1.3-9,0.9-11.6-3.9c-7,3.9-13.2-1-19.8-1.1c-0.5-2.1,2.3-4.6-1.7-5.4c-4.7,2.5-9.9,2.4-15.1,0
					c-8.8-4.1-17.6-8.3-26.3-12.6c-3-1.5-5.5-3.7-8.4-5.3c-2.8-1.5,0.3-3.7-1-5.8c-1.3,0.7-2.5,1.3-4,2.1
					c-8.5-6.3-16.4-13.4-23.5-21.2c-0.6-0.7-0.6-2-1-3c-0.4-0.9-1.2-2.6-1.6-2.5c-2.8,0.6-3.5-1.7-4.7-3.2
					c-10-12.5-17.9-26.4-23.4-41.4c-2.9-8-5.3-16.1-7.1-24.4c-1.8-8.4-2.8-17-3.8-25.6c-0.2-2,0.7-4.2,1.1-6.3
					c0.1-0.5,0.4-1.1,0.2-1.5c-2.8-5.2-1.9-10.2,0.8-15.2c0.3-0.5,0.3-1,0.2-1.5c-2.1-3.9-0.2-7.7,0.4-11.5
					c3.5-19.8,10.8-38.7,21.4-55.8c1-1.6,2-3.1,3-4.5c1.3,0.4,2.4,0.7,3.5,0.9c-0.2-0.9-0.4-1.8-0.5-2.7c0-1-0.1-2.4,0.5-3.1
					c2-2.4,4.2-4.6,6.3-6.8c0.4-0.4,1-0.6,1.2-1.1c4.5-9.7,12.9-15.9,20.8-22.4c23.4-19.3,50.3-30.9,80.4-35
					c5.3-0.7,10.7-1.3,14.9-1.8c3.2,1.2,0.7,5.1,4.7,4.7c0.3-1.4,0.7-2.9,1.1-4.6c6.5-0.6,12.8,0.5,19.6,1.7c-0.9,1.6-1.4,2.4-2.3,4
					c1.6-0.1,3.4,0.2,3.7-0.3c2.1-4.6,5.6-3.3,9.1-2.6c9.1,1.7,18,4.1,26.6,7.4c-0.3,1.2-0.5,2-0.7,3c0.3,0,0.6,0.2,0.7,0.1
					c1.8-2,3.6-1.6,6-0.7c23.9,9.8,44.9,25.3,61.4,45.2C307,483.6,313.2,493.3,319.1,504 M210.7,678.7c-1.4,0.2-2.8,0.6-4.1,1
					c-2.1,0.8-1.1,1.8,0.5,3.1c1.2-1.4,2.4-2.8,3.5-4.2c1.2-0.4,2.3-0.7,4-1.2l-2.4-2.5C211.6,676.4,211.2,677.6,210.7,678.7
					 M139.4,492.7c3.9,2.4,6.9-1.7,11.2-1.5c-2-2.4-3.4-4.2-5.3-6.6c-0.8,1.6-1.6,3.2-2.6,4.7C141.7,490.5,140.6,491.6,139.4,492.7
					 M158.2,523.5c1.5,0.7,3.4,1.5,5.3,2.4c0.6-5.6-1-7.4-8.5-10C156.1,518.3,157.1,520.8,158.2,523.5 M161.3,556.3
					c-1.7-0.7-3.5-1.3-5.3-1.8c-0.7-0.1-1.7,1-2.5,1.6c0.5,0.7,0.9,1.9,1.4,1.9c2.8,0.1,1.1,2.7,2.3,3.7
					C157.7,559.2,162.4,561,161.3,556.3 M189.4,622.9c-1.3,3.6-2.3,6.5-3.4,9.4c2.3-3.2,5.2,3.2,7.8-0.7c-2.6-1.4-4.4-3-2.6-6.1
					C191.4,625.2,190.4,624.2,189.4,622.9 M217.1,699.3c-3.9,0.5-6.4,0.8-9.6,1.2c-0.3,0.5-1.1,1.6-2.1,3.2
					C210.3,704.5,213.2,702.5,217.1,699.3 M215.8,583.9c0.9-1.8,1.7-3.4,2.7-5.2c-3.5-1-5.6-0.3-7.5,2.3L215.8,583.9 M81.3,480.3
					c-3.6,4,3.5,3.7,3.5,6.8c1-1.1,2.1-2.1,3-3C85.4,482.7,83.4,481.5,81.3,480.3 M289.7,509.3v4.7h6.5c0.1-0.3,0.1-0.6,0.2-0.9
					C294.4,511.9,292.2,510.7,289.7,509.3 M56.6,534.8c3.7-0.4,7.1-0.7,10.4-1.1C62.6,530.8,62.6,530.8,56.6,534.8 M225.8,716.9
					c-2.4,0.4-2.4,0.4-3.4,7.6C227.7,723.7,223.3,718.8,225.8,716.9 M213.9,618.4c-0.2,2.9,0.9,4.2,3.2,3.7c0.8-0.2,2.1-1.6,1.9-2.2
					C218.3,617,216,618.3,213.9,618.4 M229.2,698.8c1.6,3.1,5,5.1,6.7,3.3c-0.5-1.1-1.1-2.3-2.1-4.4
					C232.3,702.1,230.7,698,229.2,698.8 M147.9,574.4c1.9,1.3,3.1,2.2,4.9,3.5c-0.2-3.1-0.4-5.1-0.7-8.4
					C150.3,571.6,149.4,572.7,147.9,574.4 M323.7,536.2c-1.4-2.2-0.2-6.2-4.6-6.7C317.7,533.9,321.9,534.2,323.7,536.2 M216.6,494.3
					c-0.2-0.4-0.4-0.8-0.6-1.2l-5.7,0.9c0.7,1.9,1.2,3.3,2.1,5.6C214.2,497.4,215.4,495.9,216.6,494.3 M90.5,670.6
					c-3.1-3.8-6.7-0.1-9.9-2.4c0.1,0.8,0.3,1.6,0.6,2.4C84.1,670.6,87,670.6,90.5,670.6 M84.9,513.2c-0.3-3-0.5-5.1-0.7-8
					C81,510.9,81,510.9,84.9,513.2 M255.6,513.7c-0.6-1.8-1.1-3.5-1.7-5.3c-0.4,0-0.8-0.1-1.2-0.1c-0.5,1.4-1.6,2.9-1.3,4.1
					C251.8,514.1,253.3,515.1,255.6,513.7 M139.7,705.7c1.2,2,2,3.5,2.9,5c0.4,0.3,1,0.4,1.5,0.1c0.5-0.5,0.8-1.1,0.8-1.8
					C144.5,706.5,142.4,706.3,139.7,705.7 M207.8,652.6c-2.5,0.6-4.1,1-5.7,1.4C204.1,655.8,206.1,658,207.8,652.6 M220.9,463.6
					c3.4-1.6,3.9-3.4,0.6-6.4C221.3,459.9,221.1,461.7,220.9,463.6 M275.5,602.6c1.3,2,2.6,4.1,4.3,6.6
					C280.9,605,280.7,604.7,275.5,602.6 M289.1,581.5c-3.8-1.3-4.8-0.2-4.2,4.7C286.5,584.5,287.7,583.1,289.1,581.5 M97,477.1
					c-4-1.9-3.9,3.2-6.7,3.6C93.8,481.9,94.7,478.3,97,477.1 M57.7,594.4c5.7,0.7,5.7,0.7,5.8-2.2c-1.9,0.6-3.8,1.1-5.6,1.7
					C57.8,594,57.8,594.3,57.7,594.4 M234.4,681.6c2.1,2.2,4,3.2,6.9,2C239.1,682.2,238.2,678.8,234.4,681.6 M226.6,560.7
					c2.8,1.6,2.8,1.6,5.9-0.1C230.1,560.4,228.6,556.7,226.6,560.7 M167.9,675.9c1,0.5,2,0.9,3,1.3c1.1,0.2,2.1,0.3,3.2,0.4
					c-1.8-2.2-3-3.6-4.7-5.7C168.7,673.7,168.4,674.6,167.9,675.9 M108.7,604.2c0.8,1.6,0.4,3.6,2.9,4
					C113,603.8,112.8,603.7,108.7,604.2 M216.2,642.3c-3.8-2.4-6.4-1.8-7.4,1C211.3,643,213.8,642.7,216.2,642.3 M224.2,684.6
					c-1.9-0.6-3.6-1.1-5.7-1.8C221,687.9,221.4,688.1,224.2,684.6 M306.5,658.4l-1.6-0.5c-0.6,1.4-1.2,2.7-1.8,4.1
					c0.8,0.2,1.5,0.4,2.3,0.5C305.9,661.1,306.3,659.8,306.5,658.4 M189.1,593.2c0.2-2.4-0.7-3.5-2.4-3.4c-0.8,0.1-1.6,1.2-2.3,1.9
					c-0.1,0.1,0,0.6,0.1,0.9C186,592.8,187.4,593,189.1,593.2 M217.5,515c-1.4-2.1-3.7-3.4-6.2-3.6
					C213.5,513.5,213.8,516.6,217.5,515 M273.7,668.8c2.3-1.4,2.8-3.4,2.3-6.4C272.9,664.2,273.9,666.8,273.7,668.8 M218.9,501
					c-1.3-0.1-2.4-0.1-3.6-0.2c0.4,2,0.7,3.7,1.2,6.4C217.5,504.5,218.1,503,218.9,501 M228.5,474.7l0.8-0.8
					c-1.4-1.9-2.7-3.8-4.1-5.6c-0.4,0.3-0.7,0.5-1.1,0.8C224.6,471.5,226.2,473.7,228.5,474.7 M171.3,489.9c-4.3-2-4.5-1.9-5,2.2
					C167.9,491.3,169.5,490.7,171.3,489.9 M272,461c-0.1-0.4-0.2-0.8-0.2-1.3c-1.2,0.2-2.7,0.1-3.5,0.7c-1.6,1.4-0.8,2.7,0.6,3.9
					C270,463.1,271,462,272,461 M223.7,627.9c-4.6-1.1-4.6-1.1-8.9,1.5C217.9,628.9,220.3,628.5,223.7,627.9 M231.9,676.6
					c2.1-0.6,3.4-1,5-1.4C233.3,672.1,233.3,672.1,231.9,676.6 M326.5,559.8c0.7,1.8,1.8,3,3.8,1.6c0.4-0.5,0.5-1.3,0.3-1.9
					C329.1,557.6,327.8,558.1,326.5,559.8 M266.2,563c0.2,0.4,0.4,0.9,0.6,1.3c2.2,0.3,4.1,0.1,4.5-3.6
					C269.2,561.6,267.7,562.3,266.2,563 M203.6,552.9c0.5-0.1,0.9-0.2,1.4-0.2c-0.2-1.7-0.4-3.5-0.5-5.2c-0.4,0-0.8,0.1-1.2,0.1
					C202.4,549.4,202.1,551.2,203.6,552.9 M228.2,535.1c2.4-0.1,4-0.5,4.9-3.3C230.5,531.8,228.3,531,228.2,535.1 M256,647.7
					c-1.4-3.3-1.4-3.3-5.3-0.3L256,647.7 M67.2,648l-0.2,1.3c1.1,0.4,2.3,1.2,3.2,0.9c0.7-0.2,0.9-1.9,1.6-3.6
					C69.6,647.3,68.4,647.7,67.2,648 M301.8,611.6c4.2,1.3,4.2,1.3,4.4-1.6C304.6,610.5,303.2,611,301.8,611.6 M203.7,608.9
					c-3.1-2-4.8-1.2-6.6,0.2C199,610.4,200.8,609.9,203.7,608.9 M306.6,499.7c-1.2-2-2.4-2.8-4.4-1.8c-0.2,0.1-0.4,1.1-0.2,1.4
					C303.2,501.5,304.7,501.1,306.6,499.7 M257.3,669.8c0.4-1.7,2.2-2.8,0.1-4.1c-0.6-0.3-1.4-0.2-2,0.2
					C254.2,667.5,255.2,668.5,257.3,669.8 M85,488.8c-3.9,0.9-3.9,0.9-5.2,3.8C82.8,491.6,82.8,491.6,85,488.8 M251.3,675.7
					c-3-2.6-3-2.6-4.2,0.5C248.7,676,250,675.8,251.3,675.7 M131.2,446c-2-0.7-3.7-1.5-4-1.2c-0.8,0.9-0.9,2.3-1.3,3.4l0.9,0.6
					C128,448,129.1,447.3,131.2,446 M189.5,462.3c3-2.7,3-2.7,0-4.8V462.3z M284.2,474.9c2.5-3.4,2.5-3.4-0.3-5.3
					C284,471.3,284.1,472.8,284.2,474.9 M301.5,489.8c-0.1-0.3-0.2-0.7-0.4-1c-1,0.2-2.4,0.1-2.8,0.7c-0.4,0.6,0.3,1.9,0.6,3.7
					C300.3,491.5,300.9,490.7,301.5,489.8 M52.4,591.6l-1.1,1.2c1.1,0.9,2.2,1.8,4.2,3.4C55.2,592.9,54.6,591.5,52.4,591.6
					 M249.4,587c2.4,0.4,3.6,0.5,5,0.8c0.1-1.4,0.2-2.4,0.4-4C252.9,584.9,251.7,585.7,249.4,587 M135.4,572.7l1.2-1.2
					c-0.8-1.8-1.6-3.6-5.4-3.6C133,570.1,134.2,571.4,135.4,572.7 M161.6,642.2c-2.1-0.7-3.2-1.1-4.5-1.5
					C157.9,643.7,157.9,643.7,161.6,642.2 M114.3,697.1c-0.5-0.4-0.9-0.8-1.4-1.2c-0.7,0.8-1.5,1.6-2.2,2.4c0.6,0.5,1.3,1,1.9,1.5
					C113.2,699,113.7,698,114.3,697.1 M312.8,525.6c0.6-2.9,0.1-4.4-2.9-4.7C309.2,523.3,309.3,525,312.8,525.6 M239,567h5.3
					C242.7,564.9,241.1,563.1,239,567 M148.4,547.9c0.2-0.6,0.4-1.2,0.6-1.7c-1-0.2-2-0.4-3.1-0.6c-0.1,0-0.4,0.9-0.4,0.9
					C146.5,547,147.4,547.4,148.4,547.9 M213.9,531.6c-0.6-0.1-1.2-0.1-1.7-0.2c-0.5,1.3-0.7,2.5,1.4,4.6
					C213.7,534,213.8,532.8,213.9,531.6 M49.4,530.5c-0.3,0.4-0.7,0.9-1,1.3c1.4,1,2.7,2,4.1,3.1c0.2-0.3,0.4-0.5,0.6-0.8
					C51.9,532.9,50.6,531.7,49.4,530.5 M255.5,528.3c0.8-0.8,1.6-1.5,1.5-1.8c-0.4-0.8-0.8-1.5-1.4-2.1c-0.6,0.5-1.8,1-1.8,1.5
					C253.9,526.6,254.7,527.3,255.5,528.3 M112.6,562.2c2.9-2.1,2.9-2.1,0.3-3.6c-0.3,0.4-0.5,0.9-0.6,1.4
					C112.3,560.7,112.4,561.5,112.6,562.2 M254.4,457.3c-2.8-1.2-3.8-0.4-3.6,2.1c0.1,0.5,0.5,1,1.1,2.1
					C253,459.8,253.7,458.6,254.4,457.3 M255,549.1c0.6,0.1,1.3,0.3,1.9,0.4c0.2-1,0.3-2.1,0.4-3.1c-0.6-0.2-1.3-0.4-1.9-0.4
					C255.3,547,255.1,548,255,549.1 M279,517.3c-0.4-0.3-0.7-0.6-1.1-0.8c-0.9,1.1-1.8,2.2-3.3,4C278.3,520.6,278.2,518.5,279,517.3
					 M317.5,567.7c1.7-1.6,2.6-2.7,0.1-3.4c-0.5-0.2-1.2,0.2-3.3,0.8C316,566.4,316.7,567,317.5,567.7 M235.4,517.7
					c3.1,0.4,3.1,0.4,5.4-2.3C238.3,516.5,236.9,517.1,235.4,517.7 M210,619.7c-1.5,3.4,0.3,4.7,3.3,6.5
					C212,623.6,211.2,621.9,210,619.7 M85.1,692.4c-0.3-0.1-0.6-0.2-0.8-0.3c-0.5,1.7-1.1,3.5-1.6,5.2l1.1,0.3
					C84.2,695.9,84.7,694.2,85.1,692.4 M239.5,588.9c0.5-2.1,0.9-4.1-2.1-5.2C238.2,585.7,238.8,587.3,239.5,588.9 M79.6,677.8
					c0.7,0.6,1.5,1.1,2.4,1.5c0.4,0.1,0.9-0.9,1.4-1.3l-2.1-1.9C80.7,676.5,80.3,677,79.6,677.8 M102.6,596.8c1.4,1,2.1,1.6,3.2,2.4
					c0.5-1.3,0.8-2.2,1.3-3.7C105.4,596,104.4,596.2,102.6,596.8 M212.9,672.9c-0.4-2.8-1.1-4-3.5-2.9c-0.2,0.1-0.3,0.6-0.5,1.3
					C210.1,671.7,211.2,672.2,212.9,672.9 M181,660.1c-0.9,4.1-0.9,4.1,3.2,4.2C183,662.7,182.1,661.6,181,660.1 M188.4,440.6
					c-0.5-0.2-1-0.4-1.5-0.6c-0.4,1.1-0.8,2.2-1.2,3.4c0.4,0.2,0.8,0.4,1.3,0.5C187.5,442.8,187.9,441.7,188.4,440.6 M186.4,689.4
					c-0.2-0.1-0.5-0.2-0.8-0.3c-0.4,0.5-1,1-1,1.5c0.1,0.8,0.3,1.5,0.6,2.2c0.3,0,0.6-0.1,0.9-0.1
					C186.2,691.6,186.3,690.5,186.4,689.4 M284.5,570.7l-0.2-1c-0.7-0.1-1.5-0.4-2-0.1c-0.6,0.3-1,1.1-2.2,2.8L284.5,570.7
					 M231,509.7c1.1,0.9,1.9,1.6,3,2.5C233.7,509.1,233.7,509.1,231,509.7 M306.4,517c0.1,0.5,0.2,1,0.3,1.6l3.6-1.2l-0.2-0.8
					L306.4,517 M139.9,528c-0.9-3-1.6-4.4-3.7-2.6c-0.2,0.2-0.2,0.6-0.4,1.1C136.9,526.9,137.9,527.3,139.9,528 M300.9,650.2
					c-0.6,1.2-1.1,2.4-2,4.3C302.4,654.1,302,652.4,300.9,650.2 M176.8,643.7c0.6-0.1,1.2-0.2,1.8-0.2c-0.3-1-0.5-2-0.8-2.9
					c0-0.1-0.9,0-0.9,0C176.8,641.7,176.8,642.7,176.8,643.7 M177.4,548.5c-2.5,1.2-4,1.9-5.6,2.6
					C173.5,550.7,175.8,551.6,177.4,548.5 M44.7,634c2.6,0.5,2.6,0.5,3.2-1.7L44.7,634 M157.8,538.3c0.2,0.3,0.3,0.6,0.5,0.8
					c0.8-0.3,1.6-0.7,2.4-1c-0.1-0.3-0.2-0.6-0.4-0.9L157.8,538.3z M300.8,557.7c-1.1-3.4-2.5-3.3-4.8-2.2
					C297.7,556.3,298.9,556.8,300.8,557.7 M147.2,683.7c-0.3-1.3-0.5-2.6-1-4.6C144.1,681.6,144.8,682.9,147.2,683.7 M123.9,522.5
					c-0.3,0.3-0.7,0.7-1,1c0.6,0.7,1.2,1.4,1.7,2.1c0.4-0.3,0.7-0.6,1.1-0.9C125.1,523.9,124.5,523.2,123.9,522.5 M159.6,680.5
					c2.2-0.2,3.4-0.3,5.4-0.5C162.8,678.7,161.5,677.6,159.6,680.5 M263,513.9c0.4,2.5,0.4,2.5,3.2,2.5
					C264.9,515.4,264,514.7,263,513.9 M92.7,504c-0.4,0.2-0.9,0.3-1.3,0.5c0.4,0.8,0.7,1.7,1.1,2.5c0.4-0.2,0.9-0.4,1.3-0.7
					C93.5,505.6,93.1,504.8,92.7,504 M277,502.9l-1.1,0.5c0.1,0.6,0,1.5,0.4,1.9c0.5,0.5,1.3,0.5,3.2,1.1L277,502.9 M58.1,576.2
					c-0.3,0.5-0.5,1-0.8,1.5c1,0.3,1.9,0.6,2.9,0.8c0.2-0.4,0.4-0.8,0.6-1.3C59.8,576.9,59,576.5,58.1,576.2 M224.2,588.6l1.2,1
					l2.1-3.4l-1-0.7L224.2,588.6z M272.1,491.1c0.6,0.1,1.3,0.2,1.9,0.3c0-1,0.1-2.1,0.1-3.1c-0.4-0.1-0.9-0.2-1.3-0.2
					C272.5,489,272.3,490.1,272.1,491.1 M91.7,658.2c-0.3,0.3-0.7,0.6-1,0.9c0.7,0.8,1.4,1.5,2.1,2.3c0.3-0.4,1-1,0.9-1.1
					C93.1,659.6,92.4,658.8,91.7,658.2 M223.8,659.5c0.4-0.1,0.8-0.3,1.2-0.4c-0.2-0.8-0.4-1.6-0.6-2.4c-0.5,0.2-1.3,0.5-1.3,0.6
					C223.3,658.1,223.6,658.8,223.8,659.5 M171.5,425.6c-0.8,2.9-0.8,2.9,1.8,2.7C172.6,427.3,172,426.5,171.5,425.6 M266.5,650.8
					c0.6-0.7,1.3-1.3,1.2-1.4c-0.4-0.7-1-1.3-1.6-1.8c0,0-1,0.7-1,0.9C265.6,649.3,266,650.1,266.5,650.8 M170.2,646.4
					c0.3,0.1,0.6,0.3,1,0.4l0.8-3.6l-1-0.2C170.7,644.1,170.5,645.2,170.2,646.4 M33.5,594.4c0.1-0.4,0.2-0.7,0.3-1
					c-1.1-0.4-2.3-0.8-3.4-1.2c-0.1,0-0.2,0.2-1,0.8C31,593.5,32.3,593.9,33.5,594.4 M309.8,633.5c-0.1-0.5-0.3-0.9-0.5-1.4
					c-0.9,0.3-1.8,0.6-2.7,0.9c0,0.3,0.1,0.6,0.2,0.9C307.9,633.9,308.8,633.7,309.8,633.5 M95.2,634.2l1.6-0.3
					c-0.3-1-0.6-2-0.9-3.1c-0.4,0.1-0.7,0.2-1.1,0.2C95,632.2,95.1,633.2,95.2,634.2 M162.4,628c-1.8,0.3-3.6,0.9-2.4,3.7
					C161,630.1,161.7,629.1,162.4,628 M128.8,606.8c-0.5,0.6-1.1,1.1-1,1.3c0.3,0.5,0.7,1,1.2,1.4c0.2-0.4,0.6-0.9,0.6-1.3
					C129.5,607.8,129.1,607.4,128.8,606.8 M90.3,608.3c0.6,0.7,1,1.1,1.3,1.4c0.5-0.6,1.1-1.1,1.6-1.7c-0.4-0.3-0.8-0.8-1.2-0.7
					C91.4,607.6,90.8,607.9,90.3,608.3 M41.9,654c-0.2-0.3-0.3-0.7-0.5-1c-0.8,0.5-1.7,1-2.5,1.5l0.4,0.8L41.9,654 M193.7,657.3
					c0.3,0.1,0.7,0.2,1,0.4c0.5-1.2,0.9-2.5,1.4-3.7c-0.3-0.1-0.6-0.2-0.9-0.3C194.6,654.8,194.2,656,193.7,657.3 M188.9,482.4
					c-0.4-0.2-0.7-0.5-1-0.7c-0.6,0.8-1.1,1.7-1.7,2.5c0.2,0.2,0.5,0.4,0.7,0.5C187.6,484,188.2,483.2,188.9,482.4 M310.9,588.2
					c0-0.3,0-0.6,0-0.8h-3.1c0,0.3,0,0.6,0,0.8H310.9z M64.2,491.9c-0.5-0.7-1-1.5-1.1-1.5c-0.7,0.4-1.3,0.8-2,1.2
					c0.3,0.3,0.7,1,1,1C62.9,492.5,63.6,492.2,64.2,491.9 M178.3,496.5c-3-0.1-3.4,1.3-3.5,2.8c0,0.2,0.3,0.4,0.5,0.7
					C176.2,499,177.1,498.1,178.3,496.5 M280.4,501.8c0.6,0.5,1.3,0.9,2.1,1.2c0.3,0.1,0.8-0.5,1.2-0.8c-0.4-0.5-0.9-0.9-1.5-1.3
					C281.9,500.9,281.3,501.4,280.4,501.8 M239.1,665.2c-0.4,0-0.9,0-1.3,0l0.5,2.9c0.3,0,0.5-0.1,0.8-0.1V665.2z M181.7,501.8
					c-0.3-0.4-0.6-0.7-1-1.1c-0.8,0.6-1.6,1.2-2.4,1.9c0.2,0.3,0.4,0.7,0.7,1C179.9,503,180.8,502.4,181.7,501.8 M281.7,672.6
					c0.2-0.4,0.5-0.8,0.7-1.1l-2.5-1.3c-0.2,0.3-0.3,0.5-0.5,0.8C280.2,671.5,281,672,281.7,672.6 M142.4,505.3
					c0.5-0.4,1.1-0.6,1.1-1c0-0.3-0.5-1.1-0.8-1c-0.5,0.2-1,0.4-1.4,0.8C141.6,504.5,142,504.8,142.4,505.3 M92.6,567.2
					c-0.3-0.1-0.6-0.1-0.9-0.2l-0.8,2.9l1.2,0.3C92.2,569.1,92.4,568.1,92.6,567.2 M38.8,560.4c-0.1,0.3-0.2,0.6-0.3,0.9
					c0.8,0.4,1.7,0.7,2.5,0.9c0.2-0.4,0.4-0.9,0.6-1.3C40.7,560.7,39.8,560.5,38.8,560.4 M136.8,689.1c1.2-2.2,1.2-2.2-0.6-3.4
					C136.4,686.8,136.6,687.7,136.8,689.1 M185.5,528.3l1,0.1c0.2-0.3,0.5-0.8,0.5-1c-0.3-0.5-0.7-1-1.1-1.4
					C185.7,526.8,185.6,527.6,185.5,528.3 M135.9,697.5c0.8-1.1,1.4-1.7,1.3-2.1c-0.1-0.5-0.8-0.9-1.3-1.3c-0.3,0.4-0.9,0.8-0.9,1.2
					C135,695.7,135.4,696.3,135.9,697.5 M327.2,534.3c0.5,0,1,0,1.5,0c-0.1-0.9-0.1-1.7-0.2-2.6c-0.3,0-0.6,0-0.9,0
					C327.5,532.6,327.4,533.5,327.2,534.3 M302.6,550.8c0.8,0.6,1.3,1,1.8,1.4c0.3-0.4,0.7-0.8,0.7-1.2c-0.1-0.5-0.5-0.9-0.9-1
					C303.8,549.9,303.4,550.4,302.6,550.8 M142.1,721.4c0.3,0.4,0.5,0.8,0.8,1.1c0.8-0.5,1.6-1.1,2.3-1.6c-0.1-0.2-0.3-0.5-0.4-0.7
					C143.9,720.5,143,720.9,142.1,721.4 M145.5,726.2c-0.4,0.5-0.7,0.8-1,1.2c0.5,0.3,1,0.6,1.6,0.7c0.2,0,0.5-0.7,0.8-1.1
					L145.5,726.2 M164.8,726.4c-0.4,0-0.8,0-1.2,0c0.1,0.8,0.2,1.5,0.3,2.3c0.3,0,0.9-0.1,0.9-0.1
					C164.8,727.9,164.8,727.2,164.8,726.4 M87.3,547.9c0.7,0.3,1.3,0.6,2,0.8c0.1,0,0.5-0.7,0.5-0.8c-0.4-0.5-0.9-0.9-1.4-1.2
					C88,547,87.6,547.4,87.3,547.9 M190,546.9l-1.2,0.6c0.5,0.9,1,1.8,1.6,2.7c0.3-0.2,0.6-0.3,0.9-0.5
					C190.8,548.8,190.4,547.9,190,546.9"/>
			</g>
		</g>
	</g>
</g>
</svg>
