<?xml version="1.0" encoding="utf-8"?>
<!-- Generator: Adobe Illustrator 25.4.1, SVG Export Plug-In . SVG Version: 6.00 Build 0)  -->
<svg version="1.1" id="Layer_1" xmlns="http://www.w3.org/2000/svg" xmlns:xlink="http://www.w3.org/1999/xlink" x="0px" y="0px"
	 viewBox="0 0 27 27" style="enable-background:new 0 0 27 27;" xml:space="preserve">
<style type="text/css">
	.st0{fill:#FFFFFF;}
</style>
<path class="st0" d="M23.4,0.9H3.6c-1.5,0-2.7,1.2-2.7,2.7v19.8c0,1.5,1.2,2.7,2.7,2.7h7.7v-8.6H7.8v-4h3.5v-3.1
	c0-3.5,2.1-5.4,5.3-5.4c1.5,0,3.1,0.3,3.1,0.3v3.4H18c-1.7,0-2.3,1.1-2.3,2.2v2.6h3.9l-0.6,4h-3.3v8.6h7.7c1.5,0,2.7-1.2,2.7-2.7
	V3.6C26.1,2.1,24.9,0.9,23.4,0.9z"/>
</svg>
