<?xml version="1.0" encoding="iso-8859-1"?>
<!-- Uploaded to: SVG Repo, www.svgrepo.com, Generator: SVG Repo Mixer Tools -->
<!DOCTYPE svg PUBLIC "-//W3C//DTD SVG 1.1//EN" "http://www.w3.org/Graphics/SVG/1.1/DTD/svg11.dtd">
<svg fill="#000000" version="1.1" id="Capa_1" xmlns="http://www.w3.org/2000/svg" xmlns:xlink="http://www.w3.org/1999/xlink" 
	 width="800px" height="800px" viewBox="0 0 908.299 908.3"
	 xml:space="preserve">
<g>
	<path d="M132.85,395.899h-29.5v462.4c0,27.6,22.4,50,50,50h601.6c27.601,0,50-22.4,50-50V457H767.55c-13.801,0-25-11.2-25-25V277.2
		c0-13.8,11.199-25,25-25h37.399V50c0-27.6-22.399-50-50-50h-406.7c-20,0-39.199,8-53.3,22.2l-169.9,171.5
		c-13.9,14-21.7,33-21.7,52.8v66.9h29.5c13.8,0,25,11.2,25,25v32.5C157.85,384.7,146.65,395.899,132.85,395.899z M743.35,169h-70.7
		V63.9h70.7V169z M627.75,169h-70.6V63.9h70.5V169H627.75z M512.15,169h-72.5V63.9h72.5V169z M325.95,63.9h68.7V169h-68.7V63.9z
		 M214.05,162h66.2v105.1h-66.2V162L214.05,162z"/>
</g>
</svg>