<?xml version="1.0" encoding="utf-8"?>
<!-- Generator: Adobe Illustrator 25.4.1, SVG Export Plug-In . SVG Version: 6.00 Build 0)  -->
<svg version="1.1" id="Layer_1" xmlns="http://www.w3.org/2000/svg" xmlns:xlink="http://www.w3.org/1999/xlink" x="0px" y="0px"
	 viewBox="0 0 27 27" style="enable-background:new 0 0 27 27;" xml:space="preserve">
<style type="text/css">
	.st0{fill:#FFFFFF;}
</style>
<path class="st0" d="M25.9,7.2c-0.3-1.1-1.2-2-2.3-2.3c-2-0.5-10.1-0.5-10.1-0.5s-8.1,0-10.1,0.5c-1.1,0.3-2,1.2-2.3,2.3
	c-0.5,2-0.5,6.3-0.5,6.3s0,4.2,0.5,6.3c0.3,1.1,1.2,2,2.3,2.3c2,0.5,10.1,0.5,10.1,0.5s8.1,0,10.1-0.5c1.1-0.3,2-1.1,2.3-2.3
	c0.5-2,0.5-6.3,0.5-6.3S26.4,9.3,25.9,7.2z M10.9,17.4V9.7l6.8,3.8L10.9,17.4L10.9,17.4z"/>
</svg>
