<?xml version="1.0" encoding="utf-8"?>
<!-- Generator: Adobe Illustrator 25.4.1, SVG Export Plug-In . SVG Version: 6.00 Build 0)  -->
<svg version="1.1" id="Layer_1" xmlns="http://www.w3.org/2000/svg" xmlns:xlink="http://www.w3.org/1999/xlink" x="0px" y="0px"
	 viewBox="0 0 27 27" style="enable-background:new 0 0 27 27;" xml:space="preserve">
<style type="text/css">
	.st0{fill:#FFFFFF;}
</style>
<path class="st0" d="M23.4,0.9H3.6c-1.5,0-2.7,1.2-2.7,2.7v19.8c0,1.5,1.2,2.7,2.7,2.7h19.8c1.5,0,2.7-1.2,2.7-2.7V3.6
	C26.1,2.1,24.9,0.9,23.4,0.9z M9,17c-2,0-3.6-1.6-3.6-3.6S7,9.9,9,9.9s3.6,1.6,3.6,3.6S11,17,9,17z M18,17c-2,0-3.6-1.6-3.6-3.6
	S16,9.9,18,9.9s3.6,1.6,3.6,3.6S20,17,18,17z"/>
</svg>
