<?xml version="1.0" encoding="utf-8"?>
<!-- Generator: Adobe Illustrator 25.4.1, SVG Export Plug-In . SVG Version: 6.00 Build 0)  -->
<svg version="1.1" id="Layer_1" xmlns="http://www.w3.org/2000/svg" xmlns:xlink="http://www.w3.org/1999/xlink" x="0px" y="0px"
	 viewBox="0 0 27 27" style="enable-background:new 0 0 27 27;" xml:space="preserve">
<style type="text/css">
	.st0{fill:#FFFFFF;}
</style>
<path class="st0" d="M13.5,7C9.9,7,7,9.9,7,13.5S9.9,20,13.5,20s6.5-2.9,6.5-6.5S17.1,7,13.5,7z M13.5,17.7c-2.3,0-4.2-1.9-4.2-4.2
	s1.9-4.2,4.2-4.2s4.2,1.9,4.2,4.2S15.8,17.7,13.5,17.7L13.5,17.7z M21.7,6.8c0,0.8-0.7,1.5-1.5,1.5c-0.8,0-1.5-0.7-1.5-1.5
	s0.7-1.5,1.5-1.5S21.7,5.9,21.7,6.8z M26,8.3c-0.1-2-0.6-3.8-2-5.3c-1.5-1.5-3.3-1.9-5.3-2c-2.1-0.1-8.3-0.1-10.4,0
	C6.3,1.1,4.5,1.5,3,3S1.1,6.3,1,8.3c-0.1,2.1-0.1,8.3,0,10.4c0.1,2,0.6,3.8,2,5.3c1.5,1.5,3.3,1.9,5.3,2c2.1,0.1,8.3,0.1,10.4,0
	c2-0.1,3.8-0.6,5.3-2c1.5-1.5,1.9-3.3,2-5.3C26.1,16.6,26.1,10.4,26,8.3L26,8.3z M23.3,20.9c-0.4,1.1-1.3,2-2.4,2.4
	c-1.7,0.7-5.6,0.5-7.4,0.5S7.7,24,6.1,23.3c-1.1-0.4-2-1.3-2.4-2.4c-0.7-1.7-0.5-5.6-0.5-7.4S3,7.7,3.7,6.1C4.1,5,5,4.1,6.1,3.7
	c1.7-0.7,5.6-0.5,7.4-0.5s5.8-0.1,7.4,0.5c1.1,0.4,2,1.3,2.4,2.4c0.7,1.7,0.5,5.6,0.5,7.4S24,19.3,23.3,20.9z"/>
</svg>
