<?xml version="1.0" encoding="utf-8"?>
<!-- Generator: Adobe Illustrator 28.2.0, SVG Export Plug-In . SVG Version: 6.00 Build 0)  -->
<svg version="1.1" id="Layer_1" xmlns="http://www.w3.org/2000/svg" xmlns:xlink="http://www.w3.org/1999/xlink" x="0px" y="0px"
	 viewBox="0 0 1920 882.9" style="enable-background:new 0 0 1920 882.9;" xml:space="preserve">
<style type="text/css">
	.st0{fill:#334572;}
</style>
<g id="Grupo_4405" transform="translate(72.081 731.408)">
	<g>
		<g>
			<g id="Grupo_4404">
				<path id="Trazado_8225" class="st0" d="M1768.6,57.2c-0.8-0.7-0.2-1.6-0.3-2.3l-4.7,1.5l1.6,1.7c0.6,0,1.3,0,1.9,0.2
					s1.3,0.6,1.1,1.5s-0.7,1.5-1.9,0.9c0.6,0.7,0.8,1.2,0.3,2c-3,5.2-6.1,10.4-11,14.1c-2.4,2.1-5.3,3.7-8.3,4.7
					c-3.5,0.9-6.9,2.1-10.3,3.1c-1.1,0.3-2.4,0.7-3.4-0.7c-0.2,0.9-1,1.4-1.9,1.4c-1.1,0.1-2.2,0.7-3.2,0.7c-2,0.1-4-0.1-5.9-0.7
					c-1.2-0.2-2.5-0.3-3.8-0.3c-0.5,0-1-0.1-1.5-0.3c-2.1-0.9-4.3-1.8-6.5-2.4c-2.2-0.8-4.3-1.8-6.4-3c-0.2-0.1-0.3-0.3-0.5-0.3
					c-1.4,0-1.6-1-1.8-1.9c-2-0.6-3.7-1.8-4.9-3.5c-0.7-0.7-1.4-1.2-2.2-1.7c0-1.5-0.9-2.9-2.3-3.5c-0.2-0.1-0.3-0.2-0.4-0.4
					c-0.1-1.5-1.2-2.2-2.2-3.1c-0.4-0.4-0.4-1.2-0.8-1.7c-1-1.3-1.2-3-2.4-4.2c-0.2-0.3-0.3-0.6-0.3-0.9c-0.5-2.2-0.9-4.5-1.4-6.8
					l1.6-1.1l-1.7-0.4c-0.7-3.6-1.1-7.2-1.1-10.9c0-1.5-0.1-2.9,0.1-4.4c0.2-1,0.5-2.1,0.8-3.1c0.1-0.2,0.4-0.5,0.3-0.7
					c-1.1-2.5,1.5-3.9,1.7-6.1c0.2-1.2,0.7-2.3,1.2-3.3c0.2-0.6,0.5-1.2,0.8-1.7c0.5,0,1.1,0.1,1.6,0.3c0.4,0.2,0.7,0.5,1,0.8
					c-0.2,0.4-0.5,0.7-0.8,1c-0.3,0.2-0.8,0.1-1.1,0.2c-0.5,0.2-1,0.4-1.7,0.7c0.4,0.8,0.8,1.5,1.1,2.2c0.8-0.9,1.4-2.2,2.3-2.5
					c1.2-0.3,1.8-1.3,3.3-1.6l-4.4-1.9c-0.8-1.6,1.3-1.8,1-3l3.1-1.6c0.1-0.5,0.1-1.4,0.6-1.9c0.4-0.4,1.3-0.3,2.1-0.5
					c-0.5-0.8-0.3-1.9,0.6-2.5c0.6-0.5,1.2-0.9,1.7-1.4c0.3-0.3,0.9-0.6,0.9-1c0.2-1.4,1.3-1.8,2.3-2.3c1.3-0.5,2.4-1.4,3.2-2.6
					c1.8-2.2,4.2-3.9,6.9-4.9c-0.6-1.8-0.4-1.9,1.5-2.2c0.6-0.1,1.1-0.2,1.9-0.4c-0.2-0.2-0.4-0.5-0.6-0.7c-0.2-0.2-0.5-0.4-1-0.8
					c1.6-1.9,2.9-3.9,4.6-5.6c2.5-2.5,3.6-6.1,3.1-9.6c-0.3-0.1-0.5-0.2-0.8-0.2c-2.3,0.1-4.5-0.4-6.5-1.5c-1.1-0.5-2.3-0.9-3.6-1.1
					c-1.3-0.3-1.5-0.6-1.5-2.2c-1.5,1.2-2.8,0.7-4.1-0.3c-0.8-0.6-1.9-0.7-2.6-1.2c-0.5-0.4-0.7-1.2-1.1-1.9
					c-1.9-0.5-3.5-1.7-4.6-3.3c-0.7-0.7-1.5-1.3-2.3-1.8c0-1.5-0.9-2.9-2.3-3.5c-0.1-0.1-0.2-0.2-0.2-0.3c0.2-1.7-1.2-2.2-2.2-3.1
					c-0.2-0.2-0.5-0.5-0.6-0.7c-0.9-1.6-1.7-3.3-2.4-5.1c-0.9-2.5-1.5-5-2-7.5c-0.6-3.8-1.1-7.7-1.3-11.5c-0.3-3.4-0.1-6.8,0.8-10.1
					c0.5-1.7,1.2-3.4,1.9-5.1c0.3-0.8,0.7-1.6,1-2.4c0.4-1.3,1-2.6,1.8-3.7c0.4-0.6,0.6-1.3,0.7-2c0.3-1,0.8-1.1,1.8-0.6
					c0.3-0.7,0.6-1.4,1.1-2c1.4-1.6,2.9-3.1,4.3-4.6c0.7-0.8,1-0.8,2.4-0.2c-0.3-2,0.8-3.9,2.6-4.6c1.5-0.7,2.8-1.8,3.8-3.1
					c1.3-1.3,2.6-2.5,4.1-3.5c0.5-0.4,1-0.9,1.4-1.4c2.1-2.6,4.2-5.3,6.3-8c0.2-0.2,0.4-0.4,0.6-0.6c1.7,0,0.2,2.2,2,2.2
					c-0.3-1.2-0.9-2.4-0.4-3.6c0.1-0.2,0.1-0.6,0.2-0.8c1.2-1.4,1.2-3.2,1.8-4.8c0.1-0.3,0.2-0.7,0.2-1c0.1-1.4,0.1-2.8,0.1-4.2
					c0-0.4-0.1-0.8-0.1-1.2l-4.6-0.3c-0.2-0.5-0.4-0.9-0.6-1.4c-0.1,0-0.2-0.1-0.2-0.1c-2.1,1-3.7-0.9-5.6-1c-0.4,0-0.8-0.4-1.3-0.5
					c-0.7-0.3-1.4-0.5-2-0.8c-0.7-0.3-1.4-0.6-2.1-1.1c-0.8-0.6-1.3-1.3-2.5-1.2c-1.2,0.1-0.8-1.3-1.2-1.9c-2-0.5-3.8-1.7-5-3.4
					c-0.6-0.6-1.3-1.1-2-1.4c-0.4-1-0.9-2-1.4-3c-0.2-0.4-1.1-0.5-1.2-0.8c-0.3-1.8-1.8-2.6-2.8-3.9c-0.9-1.1-0.9-2.9-1.8-4
					c-2.4-3.2-2.2-7-2.9-10.6c-0.6-3.4-1-6.7-1.1-10.1c-0.3-3.1,0-6.3,0.7-9.4c0.5-1.9,1.3-3.6,2-5.5c0.3-0.9,0.7-1.7,1-2.6
					c1.3-2.8,2.4-5.7,5-7.8c0.7-0.8,1.4-1.5,2.1-2.4c0.3-0.3,1.1-0.4,1.3-0.7c0.9-1.5,2.2-2.8,3.8-3.8c0.2-0.1,0.3-0.3,0.4-0.4
					c0.3-1.7,1.6-2.3,3.1-2.8c0.7-0.4,1.3-0.8,1.8-1.3l1,1.7c0.2-0.3,0.4-0.4,0.3-0.4c-0.8-2.8,1.1-4.3,3-5.7c1-0.8,1.9-1.7,2.6-2.7
					c2.4-3.1,4.9-6,7.4-9c1-1.2,1.8-2.7,2.2-4.2c1-3.1,0.4-6.3,0.7-9.4c0.1-1.2,0.1-2.5,0-3.7c2.3-0.9,4.7,0,7-0.2c0,2.6,0,5,0,7.4
					c0,0.8,0,1.6-0.8,2.1c-0.4,0.2-0.5,0.9-0.8,1.5c0.2,0,0.5,0,0.7,0c0.3-0.1,0.5-0.1,0.7-0.2c0.6,1.4,1.2,2.8,1.9,4.2l-1.5,0.3
					l1.3,2.2l1.3-0.5l6.7,7.6l-1.1,1.1c0.3,0.1,0.4,0.3,0.6,0.3c0.5-0.1,1-0.3,1.6-0.6c0.2,0.4,0.5,0.7,0.7,1.1
					c0.2,0.6,0.4,1,1.2,1.1c0.5,0.1,0.5,1.4,1.5,1.1c0.9-0.2,1.5,0.4,2.1,0.9s1.2,1.1,1.8,1.6c0.6,0.5,1.4,0.9,2,1.4
					c1.4,1.2,2.9,2.3,4.2,3.5c1.4,1.1,2.7,2.4,3.9,3.7c1.4,1.5,2.5,3.3,3.7,4.9c0.7,0.9,1.5,1.8,2.3,2.8c-0.1,0.3-0.4,0.8-0.8,1.6
					l1.2-0.5c0.1,0.1,0.3,0.1,0.3,0.2c0.8,1.3,1.6,2.6,2.4,3.9c0.3,0.5,0.7,1,1,1.5c0.2,0.2,0.4,0.5,0.5,0.8
					c0.4,1.7,0.7,3.4,1.1,5.1c0.1,0.6,0.2,1.2,0.5,1.7c1,1.5,1.4,3.2,1.2,4.9c0,0.5-0.2,1.1,0.1,1.4c0.7,0.8,0.7,2,0,2.8
					c-0.1,0.2-0.1,0.5,0,0.8c0.5,2.8,0.5,5.7-0.1,8.6c-0.9,4.9-2.2,9.6-5.1,13.9c-1.4,2-2.4,4.3-3.8,6.3c-2.9,4.2-6.7,7.7-11.1,10.2
					c-0.6,0.2-1.3,0.3-1.9,0.3c-0.1,0.6-0.8,0.9-1.6,1.3c-3.4,1.4-6.9,2.4-10.5,3.2c-1.6,0.3-3.3,0.5-5,0.6
					c-0.8,0.2-1.7,0.4-2.5,0.7c-0.7,4.8,1.3,8.6,3.8,12.1c0.5,0.7,0.9,1.3,0.8,1.9c1.1,0.9,2.2,1.7,3.1,2.5c1.2,1.2,2.4,2.5,3.6,3.7
					c0.3,0.3,0.6,0.5,1,0.6c1.5,0.2,2.3,1.2,3.1,2.3c0.8,1,1.8,1.8,2.9,2.5c1.3,0.8,2.4,1.8,3.2,3c0.1,0.1,0.2,0.3,0.2,0.3
					c2.4,0.3,3,3.2,5.2,3.8c0.4,0.1,0.6,0.7,0.9,1c1.5,2,2.9,4,4.4,6c0.4,0.5,0.8,0.8,1.2,1.3c0.5,0.4,0.9,0.9,1.2,1.5
					c0.7,2.3,2.3,4,3.6,5.9c0.3,0.4,0.5,0.9,0.6,1.5c0.4,1.7,0.6,3.4,1.1,5c0.4,1,0.8,2,1.3,2.9c0.1,0.2,0.2,0.5,0.2,0.8
					c-0.8-0.2-2-0.6-2.1-0.4c-0.4,0.8-0.7,1.7-0.9,2.6l2.6,0.7c1,1,1,2.2,0.6,3.7c-0.2,1.4-0.2,2.9,0.1,4.4c0.1,1.9,0,3.7-0.5,5.6
					c-0.3,1.8-0.7,3.5-1.1,5.2c-0.6,1.6-1.2,3.2-2,4.8c-0.2,0.5-0.9,0.8-1.2,1c-0.2,0.9-0.5,1.8-0.8,2.7c-1.9,3.6-4.2,7-7,9.9
					c-2.5,2.8-5.6,5-9,6.6c-2.3,1-4.7,1.9-7.1,2.7c-1.8,0.6-3.8,1.1-5.7-0.5c-0.2,0.9-0.3,1.5-0.4,2.1c-2.3,0.1-4.6-0.1-6.8,1.1
					c-0.3,2.3,0.7,4.1,1.7,6c1.9,3.7,4.8,6.6,7.8,9.5c-0.4,1.1-2.2,0.8-2,2.5l3.3-1.2c0.5,0.9,1.4,1.4,2.4,1.4
					c0.5,0.1,1,0.4,1.3,0.8c1.3,1.8,3,3.3,4.9,4.4c0.4,0.3,0.7,0.6,1.1,0.9c2.1,1.7,4.2,3.4,6.2,5.1c0.6,0.6,1.2,1.2,1.7,1.9
					c1.2,1.7,2.4,3.3,3.7,5c0.2,0.3,0.3,0.7,0.6,0.8c2.6,1.6,3,4.6,4.6,6.8c0.2,0.3,0.3,0.8,0.6,1c0.7,0.6,0.8,1.3,1,2.1
					c0.6,1.7,0.5,3.6,1,5.3c0.1,0.5,0.4,0.9,0.7,1.2c1,1.1,0.8,2.6,0.9,4c0.1,0.7,0.2,1.4,0.3,2.1c0,0.1,0.1,0.3,0.1,0.4
					c-0.1,3.3,0,6.6-0.3,9.9c-0.1,1.6-1,3.2-1,4.9c-0.2,1.4-0.6,2.7-1.2,4C1769.2,57.2,1768.8,57.1,1768.6,57.2L1768.6,57.2z
					 M1737-109.8c-0.7,0.1-1,0.4-0.5,1.5C1736.7-109.1,1736.8-109.5,1737-109.8c0.7-0.5,0.7-0.5,0.2-1.2
					C1737.1-110.5,1737.1-110.2,1737-109.8 M1746.8-142.3c-0.3,0.3-1.5,0.3-0.4,1.5C1746.6-141.5,1746.7-141.9,1746.8-142.3
					c0.7,0,1.5,0.4,2.3,0.2c0-0.1,0-0.3,0-0.4L1746.8-142.3 M1756.1,30.5l1.9-0.4C1757.2,29.5,1756.4,29.2,1756.1,30.5l-2.2-0.3
					c0,0.2,0,0.3,0,0.5L1756.1,30.5 M1705,75.3c0-0.6,0.1-1.2-0.8-1.2c-0.1,0-0.3,0.3-0.4,0.5L1705,75.3l-0.7,1.9
					c1.1-0.5,1.8-0.8,2.8-1.3c-0.6-0.2-0.9-0.3-1.1-0.4C1705.6,75.5,1705.3,75.4,1705,75.3 M1718.9,8.1l-1.8-1.3
					c0.1,0.8,0.1,1.4,0.2,2L1718.9,8.1c-0.2,1.7-0.2,1.7,2.7,1.8C1720.5,9.1,1719.7,8.6,1718.9,8.1 M1735-194.2
					c0.1,0.6,0.8,1.1,1.4,0.9l0,0C1736.3-194.4,1735.4-194,1735-194.2c0.1-1,0.4-2.2-0.7-3.1c-0.2,0.8-0.5,1.5-0.7,2.2
					C1734.1-194.7,1734.5-194.5,1735-194.2 M1706.8,49c-0.6,0.2-1.8-0.9-1.9,0.7l1.8,1.4C1706.7,50.3,1706.8,49.6,1706.8,49
					c0.4,0.2,0.8,0.4,1.3,0.5c0.2,0,0.6-0.2,0.8-0.4c0.1-0.2,0.1-0.3,0-0.5c-0.3-0.1-0.6-0.2-0.9-0.1
					C1707.6,48.6,1707.2,48.8,1706.8,49 M1700.3-185.7c0.8-0.3,1.9-0.3,1.9-1.6c-1.5-1.1-3.6-0.8-4.7,0.7l-0.1,0.1L1700.3-185.7
					L1700.3-185.7z M1753.3-168.2h-1.4c0,1,0.7,2-0.1,2.9c-0.1,0.2,0.3,1,0.6,1.4c0.2,0.3,0.8,0.3,1.2,0.5c0.3-1.1-0.9-2.2,0.3-3.2
					C1754.1-166.7,1753.6-167.6,1753.3-168.2 M1736.6,47.5c0.2,0.6,0.8,1.4,0.6,1.9c-0.4,1.2,0.5,1.3,1.1,1.8
					c0.1-0.9,0.1-1.7,0.2-2.2c0.8-0.8,2.3,0.8,2.1-1.2C1739.2,48.5,1738.2,46.1,1736.6,47.5 M1733.2-162.4c1.5-3.5,1.5-3.5,0-4.6
					c-0.8,0.5-1.9,0.9-1.7,2.4l1.8-0.3C1733.3-163.9,1733.3-163.1,1733.2-162.4 M1709.6-155.3c-0.3,0.1-0.7,0.2-0.7,0.4
					c-0.1,1.2-0.1,2.3,0,3.5c0.2,0.8,0.4,1.5,0.7,2.2c0.6,0.1,1.4,0.6,1.9-0.5l-1.3-0.5c-0.3-0.9-0.5-1.8-0.7-2.7
					C1709.5-153.5,1710.6-154.2,1709.6-155.3 M1725.4,13.7c-1.2,0.8-2.1,1.4-3,2c0.1,0,0.3,0.1,0.4,0.1c0.2,0.1,0.5,0.3,0.7,0.4
					c0.5-0.8,1.7-1.1,2.5-0.6c0.6,0.4,1.1,1.2,2.3,0.7C1726.8,15.8,1727.1,13.7,1725.4,13.7 M1717-177.2c-0.9,1.8-0.6,3.4,1,4.4
					l0.8-3.4c-0.4-0.2-0.7-0.3-0.9-0.4C1717.6-176.8,1717.3-176.9,1717-177.2 M1724-103c0.6-1.1,0.9-2.4,0.7-3.7
					c0-0.2-0.4-0.2-0.6-0.4c-0.8,1.5-0.8,1.5-2.4,1.4L1724-103 M1700.7-159.2c-0.9-1.2-1.8-1.8-2.2-1.4c-0.8,0.8-2.7,0.6-2.7,2.7
					c1-0.4,1.7-0.8,2.5-1.1C1699.1-159.3,1699.9-158,1700.7-159.2 M1757.5-177.7c-0.6-0.1-0.7-1.6-1.8-0.9c0.3,1.2,0.5,2.3,0.8,3.5
					l3.5-0.4c-0.9-1.7-1.5,0.1-2.5-0.3V-177.7z M1754.9-156.5c-0.4-0.4-0.7-0.9-1.1-1c-0.6,0-1.3,0.2-1.9,0.5
					c-0.6,0.2-1.2,0.5-1.9,0.9l0.3,0.8L1754.9-156.5 M1757.6,51.5c1.9-1.5,1.9-1.5,1.9-3.3c-1.6-0.3-0.1,1.4-1.2,1.5l-0.9-1.2
					C1756.9,49.4,1757,50.6,1757.6,51.5 M1709.3-92c1.4-0.8,1.5-1.4,0.3-3.3c-0.5,0.4-1,0.9-1.5,1.3
					C1708.5-93.4,1708.9-92.8,1709.3-92 M1727.8-91.1c0.8,1.4,1.3,3,3.6,2.6C1730.3-89.6,1729.9-91.3,1727.8-91.1 M1735.3-38.9
					c0.4,1.6,0.6,2,1.3,1.8c0.8-0.2,1.2-1,1.1-2.6L1735.3-38.9 M1727.4,33.5c0.8,0.9,1.6,1.7,2.3,2.5c1.1-1.1,0-1.8-0.4-2.5
					C1728.8,32.7,1728.1,32.7,1727.4,33.5 M1741.5,29.8c-0.4-1.4-1.4-1.2-2.3-1.3c-1,0.8-0.2,1.5,0.1,2.3L1741.5,29.8 M1725.4-218.6
					c-0.4,0.8-0.2,1.8,0.5,2.4c0.5,0.3,1,0.6,1.3-0.1c0.1-0.4,0-0.8-0.3-1.2C1726.5-217.9,1726-218.3,1725.4-218.6 M1741.4-36.8
					c0.4,0.3,0.8,0.6,1.2,0.9c0.2,0.3,0.4,0.7,0.5,1.1c0.2,0.4,0.3,0.9,0.4,1.3c0.1,0.4,0.3,0.7,0.7,1.4
					C1744-36.1,1743.3-37.3,1741.4-36.8 M1692.4-71.3c-0.1,0.1-0.2,0.1-0.3,0.2c-0.5,0.5-1.1,1.2-0.2,1.5c0.6,0.3,1.6-0.1,2.4-0.2
					c-0.1-0.3,0-0.7-0.2-0.8C1693.5-70.9,1693-71.1,1692.4-71.3 M1745.2-177.1c-0.5,0.4-0.3,1.3,0,1.2c1.2-0.4,1.4,0.6,1.7,1.4
					c0.9-1,0.9-1,0.7-1.9L1745.2-177.1 M1700-67.1c-0.8-0.2-1.3-0.4-2-0.5c0,2.3,0,2.3,1,2.8C1699.3-65.5,1699.6-66.2,1700-67.1
					 M1709-195c0.9-0.5,1.3-0.7,1.8-0.9c-1.2-1.1-1.9-2.6-3.7-3c0.1,0.8,0.4,1.4,1.1,1.6C1709.4-197.1,1709.6-196.4,1709-195
					 M1709.2,5.1c1.1-0.3,2-0.6,3-0.8l-2.9-1.3C1709.3,3.7,1709.3,4.3,1709.2,5.1 M1702.9-89.7c-2.2,0-2.2,0-2.3,1.1
					c0.5-0.2,1-0.2,1.5-0.2c0.4,0.1,0.7,0.6,1,0.9C1703.9-88.8,1703.3-89.2,1702.9-89.7 M1748.8-182.9l1.4,0.2c0.2-1-0.5-2,0.6-2.7
					c0,0-0.3-0.6-0.6-1.3C1749.7-185.2,1749.3-184.1,1748.8-182.9 M1731.3-158.9c0.7,0.3,1.6,0,1.9-0.7v-0.1
					c0.4-0.7,0.1-1.1-0.6-1.6L1731.3-158.9 M1719.3,77.4h-0.6l-0.8,2.1l1.4,0.9V77.4z M1687.5-181.6c0.8,0.2,1.3,1.3,2.1,0.4
					c0.3-0.3,0.4-0.8,0.1-1.1c-0.1-0.1-0.2-0.2-0.3-0.2C1688.6-183,1687.9-182.9,1687.5-181.6 M1714.8-101.4
					c-1.7,1.6-1.7,1.6-0.7,2.4l1.7-1.6L1714.8-101.4 M1724.3-76.3c0.4,0.4,0.7,1,1,1c0.9,0,1.8-0.1,2.6-0.3
					C1726.9-76.5,1725.5-76.8,1724.3-76.3 M1725.6-247.3c0,0.9,0.4,1.7,1.2,2.2c0.3,0.1,0.6,0.1,0.9,0c0.2-0.3,0.2-0.6,0.1-0.9
					C1727.3-246.7,1726.5-247.2,1725.6-247.3 M1737.8-84.6c0-0.8,0.1-1.5-0.8-1.6c-0.3,0-0.8,0.2-0.8,0.3c-0.1,0.7-0.1,1.4,0,2.1
					L1737.8-84.6 M1741.6-89l0.5,0.3l1.6-0.9c-0.5-0.8-0.8-1.6-1.6-1C1741.8-90.3,1741.8-89.6,1741.6-89 M1704.9,15
					c0.4,0.3,0.8,0.6,1.1,0.9c0.3,0.4,0.6,0.9,0.8,1.3c1.2-1.1-0.3-1.5-0.3-2.3c0-0.2-0.6-0.5-1-0.6
					C1705.4,14.3,1705.2,14.7,1704.9,15 M1769.9-175.1c0.5-0.6,0.8-1.2,0.1-1.3c-0.8-0.1-0.9-0.5-1.3-1c-0.4-0.7-0.8-0.3-1.2,0.3
					L1769.9-175.1 M1753.8-96.1c1.3,0.7,1.9,0.2,2.3-1.6C1755-97.9,1754-97.2,1753.8-96.1L1753.8-96.1 M1762.6-159
					c0.5-1.3,0.8-2.2,1.2-3.5c-0.6,0.3-1.1,0.4-1.2,0.6C1762.3-161.1,1761.6-160.4,1762.6-159 M1692-189.1l2.1,1.7l0.8-0.7
					c-0.6-0.3-1.1-0.7-1.6-1.1C1692.8-189.8,1692.4-189.8,1692-189.1 M1719.5,21.4l-2.4-0.5c0.1,0.7,0.1,1.4,0.3,1.5
					C1718.3,23,1718.7,22,1719.5,21.4 M1707.4-39.9l0.5-0.1c0-0.4,0.1-0.9-0.1-1.1c-0.6-0.6-1.2-1-2.1-0.1L1707.4-39.9
					 M1731.7-135.7c0.3-0.5,0.6-0.9,1-1.4c-0.8-0.7-1.9-0.6-2.6,0.2c0,0,0,0,0,0.1C1730.7-136.4,1731.1-136.1,1731.7-135.7
					 M1731.4,78.1l-1.6,2.2c0.5,0.3,1,0.3,1.2,0.1C1731.4,79.8,1732.3,79.3,1731.4,78.1 M1720.6-210.9c0.8,2.1,1.5,2.5,2.7,1.5
					L1720.6-210.9 M1726.5-71.5c-0.1-0.1-0.1-0.3-0.2-0.4c-0.5,0.1-1.2-0.1-1.4,0.2c-0.5,0.5-0.4,1.3,0.1,1.8l0.1,0.1L1726.5-71.5
					 M1706.4-150.8c-0.4-0.8-0.6-1.2-0.8-1.5l1-1.2c-0.9-0.6-1.2-0.3-1.5,0.4C1704.8-152.2,1704.8-151.4,1706.4-150.8 M1749.2,55.3
					c0.3,0.4,0.5,0.9,0.6,1.4c0.2,0.9,0.6,1.1,1.3,0.7C1750.2,55.1,1750.2,55.1,1749.2,55.3 M1711.4,0.2l-3,0.4l2.1,1.4
					C1710.8,1.3,1711,0.9,1711.4,0.2 M1724.8,11c1-1.2,0-2.1-0.2-3.2l-0.5,0.1L1724.8,11 M1728.2-182.2c-0.3-0.9,1.3-1.7,0-2.7
					C1727.7-183.9,1727.1-183.1,1728.2-182.2 M1729.9-151.3c-2.2-1.2-3-1.2-3.7,0H1729.9z M1699.2-97.6c-0.6,0.5-0.9,1.1-0.2,1.6
					c0.4,0.3,0.9,1.1,1.6,0.3L1699.2-97.6 M1723.4-15.9l2.5,1.3C1724.7-16.8,1724.7-16.8,1723.4-15.9 M1736.2-63.4
					c0.5-1.1-0.1-1.7-0.7-2.4C1735-64.1,1735-64.1,1736.2-63.4 M1709.8-74.4c0.5,0.4,1.2,0.2,1.6-0.3c0.1-0.1,0.2-0.3,0.2-0.5
					c0.2-0.6,0.2-1.5-1.1-1.5l0.6,1.3L1709.8-74.4 M1711.6-80.7v3C1712.8-78.8,1712.8-79,1711.6-80.7 M1690.4,34.6
					c-0.6-0.8,0.5-1.6-0.6-2.3c-0.3,0.7-0.5,1.3-0.8,2L1690.4,34.6 M1731.5,84.1c0.3-1.2,1.7-1.2,1.4-2.3
					C1731.4,82.1,1731.4,82.1,1731.5,84.1 M1759.6,44.3c0.1,0.8,0.4,1.4,1.3,1.2c0.3-0.1,0.7-0.7,0.6-0.9
					C1761.1,43.7,1760.4,43.9,1759.6,44.3 M1735.7,80.9c0.3,0.5,0.5,0.8,0.7,1.1c0.1,0.1,0.2,0.1,0.4,0.1c0.1-0.8,0.3-1.5,0.4-2.2
					c0-0.1-0.2-0.1-0.3-0.3L1735.7,80.9 M1712.4-107.9l-2.6-0.5c0.5,0.8,0.7,1.2,0.9,1.8L1712.4-107.9 M1754.8,69.4l-2.5,0.8
					C1753.2,70.2,1754.4,71.6,1754.8,69.4 M1702-63.6c-2,0.1-2.2,0.4-1.6,1.7L1702-63.6 M1692.8-85.2c-0.9,0-1.4-0.2-1.7,0
					c-0.3,0.2-0.3,0.7-0.4,1.1c0.4,0,0.8,0,1.2-0.1C1692.1-84.2,1692.3-84.6,1692.8-85.2 M1690.3-84.2c-1.9,0.8-2,1-0.9,2.2
					C1689.6-82.7,1689.8-83.2,1690.3-84.2 M1711.7-182.1l1.3,1.2l0.3-0.2c-0.1-0.7-0.3-1.4-0.5-2.5L1711.7-182.1 M1704.8,10.5
					c-1.4-0.9-2-0.5-2.1,1.1L1704.8,10.5 M1710.9-198.4l2.9,1.5C1712.2-198.8,1712.2-198.8,1710.9-198.4 M1743.1-75.4
					c-1.6,1.1-1.6,1.6-0.3,2.3C1743-73.9,1743-74.5,1743.1-75.4 M1717.5-182.6c-0.1,0.6-0.1,0.9-0.2,1.2c0,0.3,0,0.7,0,1.2
					C1718.7-181.3,1718.7-181.3,1717.5-182.6 M1717.4,36c-0.7-1.4-0.7-1.4-1.9-0.7C1716.1,35.8,1716.4,36.7,1717.4,36 M1761.3-39.8
					l2.3-1.4C1761.9-42,1762-40.3,1761.3-39.8 M1712,35.9c0.2-0.9,0.4-1.5,0.6-2.1l-0.3-0.1c-0.4,0.5-0.8,1.1-1.3,1.7L1712,35.9
					 M1725.8-219.9c0.2-0.7,0.9-1.5-0.2-1.8c-0.2-0.1-0.6,0.3-0.9,0.6L1725.8-219.9 M1727.2-26.8c-1.5-0.9-1.5-0.9-1.9,0.4
					L1727.2-26.8 M1735.5-144.5l-1,1.9C1736.1-143.4,1736.1-143.4,1735.5-144.5 M1767-188.1c-0.2-0.9-0.3-1.3-0.4-1.9l-1.8,0.7
					C1765.6-188.9,1766.1-188.6,1767-188.1 M1698.2,56.3c-1,0.6-1,0.7-0.1,2.7C1698.1,58.1,1698.2,57.2,1698.2,56.3 M1704,60.4
					c-1.5-0.8-1.7-0.7-1.9,0.9c0.2-0.2,0.5-0.4,0.8-0.6C1703.2,60.6,1703.6,60.5,1704,60.4 M1696.7-165c1.5-0.7,1.8-1.1,1.6-2.5
					C1697.9-166.7,1697.4-166,1696.7-165 M1754.7-69.5c0.1-0.1,0.1-0.3,0.2-0.4l-2-0.8c-0.1,0.1-0.1,0.3-0.2,0.4L1754.7-69.5
					 M1759.7-182.8h0.4v-2.1l-1,0.1C1759.3-184.1,1759.5-183.4,1759.7-182.8 M1760.4-59.4c0.7-0.5,1.1-0.8,1.6-1.1
					C1760.3-61.4,1760.2-61.3,1760.4-59.4 M1740.8,61.7c-0.1-0.7,0.3-1.4-0.6-1.8C1739.5,61.5,1739.5,61.5,1740.8,61.7 M1727.6,70.9
					c-0.8,1.3-0.9,1.6-0.5,2.4C1727.3,72.4,1727.4,71.7,1727.6,70.9 M1765-74.7c-1.4,0.8-1.5,1,0,1.9V-74.7z M1737.4-48.4
					c-0.1-0.7-0.2-1.3-0.2-1.8C1736.8-49.6,1735.8-48.9,1737.4-48.4 M1717.8-169.4c-0.1,0.1-0.2,0.3-0.4,0.4l1.1,1.1l0.9-1
					L1717.8-169.4 M1739.4-147.7c0.3,0.7,0.6,1.3,0.9,2C1741.1-146.8,1741.1-146.8,1739.4-147.7 M1758.5-166.4c1.8,0,2-0.2,1.4-1.5
					L1758.5-166.4 M1755.2-80.5l1.7,0.3c-0.2-0.6-0.3-0.9-0.4-1.5L1755.2-80.5 M1710.6-91.4c-1.4,0.6-1.4,0.8-0.4,1.8
					C1710.3-90.2,1710.5-90.7,1710.6-91.4 M1741.8-174.9c0.6,0.8,0.9,1.7,1.9,0.7C1743.3-174.8,1743-175.3,1741.8-174.9 M1711-32.7
					c-0.1-0.2-0.3-0.3-0.4-0.5c-0.5,0.4-1.7,0.1-1.3,1.7L1711-32.7 M1720.3,67.4l-1.2-1.3C1718.7,67.4,1719.3,67.6,1720.3,67.4
					 M1690-175.3c0.6,0.6,1.1,1,1.7,0.2C1691.3-175.7,1690.8-176.2,1690-175.3 M1694,34.5c0.1-0.2,0.1-0.3,0.2-0.5
					c-0.8,0-1.4-0.9-2.8-0.2L1694,34.5 M1720.3-205.2c0-0.3,0.1-0.5,0.2-0.8l-1.2-0.3c-0.1,0.3-0.1,0.6-0.2,0.9L1720.3-205.2
					 M1722.6,37.3c0.3,0.4,0.6,0.8,1.1,1.4c0.2-0.7,0.4-1.2,0.3-1.5C1723.8,36.8,1723.3,36.5,1722.6,37.3 M1750.4-179.2
					c-0.3-0.8-0.6-1.2-1.3-0.8c-0.1,0.1-0.2,0.3-0.2,0.5C1749.1-178.7,1749.6-178.8,1750.4-179.2 M1735.5-172.6
					c0.6-1.2,0.6-1.3-0.9-1.6L1735.5-172.6 M1754,66.8l-2.1-0.6C1752.4,66.8,1752.7,67.7,1754,66.8 M1765.8-183.8
					c0.1-1.4,0.1-1.4-1-1.8C1765.2-184.9,1765.4-184.5,1765.8-183.8 M1739.1-183c0.8,0.5,1.8,0.7,2.8,0.4c-0.9-0.3-1.4-0.5-1.9-0.7
					C1739.9-183.3,1739.8-183.2,1739.1-183 M1727-85.4c-1.4-0.2-1.3,0.5-1.1,1.6L1727-85.4 M1728.8-155.1c-0.4-0.3-0.7-0.6-0.9-0.5
					c-0.3,0.1-0.5,0.5-0.7,0.7c0.2,0.2,0.5,0.6,0.7,0.6C1728.2-154.3,1728.4-154.7,1728.8-155.1 M1689.7-166
					c-0.1,0.2-0.2,0.3-0.3,0.5l2,1.1C1691.4-166,1690.3-165.6,1689.7-166 M1729.5-66.8c-0.3-0.4-0.5-0.8-0.6-0.8
					c-0.3,0.1-0.6,0.3-0.9,0.5c0.2,0.2,0.3,0.6,0.5,0.6C1728.7-66.4,1729-66.7,1729.5-66.8 M1691.6-59.2c0.1,0.1,0.3,0.2,0.4,0.3
					c0.3-0.4,0.7-0.8,1.1-1.4C1691.8-60.5,1691.8-59.7,1691.6-59.2 M1698-57.1c-0.8,0.2-1.7,0.4-0.9,1.5L1698-57.1 M1705.4-177.6
					l-1.3,1.9C1705.5-175.9,1705.5-175.9,1705.4-177.6 M1697.9,34.1l0.7-0.2c-0.1-0.4-0.3-0.8-0.5-1.2c-0.2,0-0.4,0.1-0.6,0.2
					C1697.7,33.3,1697.8,33.7,1697.9,34.1 M1715.1-208.2c0.6,1,1.1,1.2,1.7,0.3c0-0.1-0.1-0.2-0.1-0.4L1715.1-208.2 M1687.7,36.7
					c0.2,0.8,0.4,1.2,0.5,1.8C1689,37.6,1689,37.6,1687.7,36.7 M1741.3-71.8c-0.2,0.3-0.4,0.7-0.6,1.1c0,0.1,0.4,0.4,0.5,0.4
					c0.2-0.2,0.4-0.4,0.6-0.7C1741.8-71.1,1741.5-71.4,1741.3-71.8 M1709.4,23.3c-0.2-0.9-0.2-0.9-1.9-1.2L1709.4,23.3 M1764.5,48.5
					c0.7,1.2,0.7,1.2,1.7,1.3L1764.5,48.5 M1738.6,7.3l1.9,1.7C1740.1,8.2,1739.9,7.2,1738.6,7.3 M1739.3,55.3
					c0.1,0.1,0.2,0.2,0.3,0.3c0.4-0.5,1.3-0.8,0.7-2.1C1739.9,54.2,1739.6,54.8,1739.3,55.3 M1730.4-182.2h-0.5v1.1h0.7
					C1730.6-181.5,1730.5-181.9,1730.4-182.2 M1739.9-155.1c0.5-0.4,0.8-0.7,1-1c0,0-0.2-0.4-0.3-0.4
					C1740-156.4,1739.6-156.2,1739.9-155.1 M1728.7-161.4v-1.3l-1.4,0.4L1728.7-161.4 M1720.6,84.1l0.7-2
					C1720.2,82.5,1719.9,82.9,1720.6,84.1 M1759.4-159.8c-1-0.4-1.3-0.1-1.4,1C1758.6-159.3,1759-159.5,1759.4-159.8 M1732.5-88
					l2.2,1.4C1733.6-88.3,1733.6-88.3,1732.5-88 M1718.6,0.1l-1.7,0.2C1717.6,1.7,1718,1,1718.6,0.1 M1720.5-87.5
					c-0.2-1.4-0.2-1.4-1.3-1.7C1719.7-88.5,1720-88.1,1720.5-87.5 M1726.4,78.8l0.5-0.1c-0.1-0.5-0.3-1-0.4-1.6l-0.6,0.2
					C1726.1,77.8,1726.3,78.3,1726.4,78.8 M1702.5,65.6c1.2,0.3,1.2,0.3,1.1-0.8L1702.5,65.6 M1746-157.8c0,0.2-0.1,0.5-0.1,0.7
					l1.5,0.1l0.1-0.5L1746-157.8 M1741.5,69.6c-0.9-0.3-1.4-0.5-1.7,0.1c-0.1,0.1,0,0.3,0.1,0.7C1740.4,70.2,1740.8,70,1741.5,69.6
					 M1739.5,71.5c-0.3,0.5-0.6,0.7-0.6,0.9c0,0.3,0.1,0.5,0.2,0.8l0.3-0.1L1739.5,71.5z M1721.9,64.4c0.3,0.2,0.5,0.5,0.7,0.5
					c0.2,0,0.4-0.3,0.5-0.5c-0.2-0.1-0.3-0.4-0.5-0.4C1722.4,63.9,1722.2,64.2,1721.9,64.4 M1703.7-99.7v0.4c0.5,0.1,1,0.4,1.6-0.5
					L1703.7-99.7 M1752.9-82.7l0.2,0.5l1.2-0.6c-0.1-0.1-0.1-0.3-0.2-0.4L1752.9-82.7 M1748-78.4c0.2-0.3,0.5-0.6,0.4-0.7
					c-0.1-0.2-0.4-0.3-0.5-0.5c-0.1,0.2-0.4,0.4-0.4,0.6C1747.5-78.9,1747.8-78.7,1748-78.4 M1699.6-77.3c0.5-0.9,0.5-0.9,0.3-1.4
					c0-0.1-0.2,0-0.6-0.1C1699.4-78.4,1699.5-77.9,1699.6-77.3 M1713.5,11.6c0.2,0.6,0.3,1.1,1,0.7c0.2-0.2,0.5-0.4,0.7-0.6
					C1714.5,11.7,1714.1,11.6,1713.5,11.6 M1718.1-165.5l-0.1,0.6l1.3,0.2l0.1-0.5L1718.1-165.5 M1744.1-193.7
					c1.3-0.2,1-0.9,0.9-1.5c0-0.1-0.2-0.1-0.4-0.2C1744.5-194.9,1744.4-194.4,1744.1-193.7 M1744.9,21.1c-0.3-0.2-0.6-0.4-0.8-0.4
					c-0.2,0-0.4,0.3-0.6,0.5c0.2,0.2,0.5,0.4,0.7,0.5C1744.4,21.8,1744.6,21.4,1744.9,21.1 M1760.4,20.9c0,0.2,0,0.4,0.1,0.6
					l1.4-0.5c0-0.1-0.1-0.3-0.1-0.4L1760.4,20.9 M1759.3-173.8l-0.1-0.6c-0.4,0.1-0.8,0.3-1.1,0.4c0,0.1,0,0.2,0.1,0.3
					C1758.5-173.6,1758.9-173.7,1759.3-173.8 M1729.6-68.5l1.5,0.9C1730.9-68.3,1730.7-69,1729.6-68.5 M1764,22.9
					c-1-0.6-1-0.6-1.7,0H1764z M1763.9,40c-0.2-0.4-0.4-0.9-0.6-1.3c0,0-0.5,0-0.5,0.1C1762.6,39.5,1763,39.7,1763.9,40
					 M1696.5,28.4c0.8-0.8,0.8-0.8-0.2-1.5C1696.4,27.4,1696.4,27.8,1696.5,28.4 M1711.9-138.8c1.2,0.2,1.2-0.4,1.3-1.5
					L1711.9-138.8 M1711.5,39.5c-0.1-1.2-0.1-1.2-1-1.4C1710.9,38.5,1711.1,38.9,1711.5,39.5 M1750.6-147l0.4-0.2l-0.6-1.1l-0.3,0.2
					L1750.6-147z M1704,8.2l0.4,0.1l0.3-1.1l-0.5-0.1C1704.1,7.5,1704,7.9,1704,8.2 M1749.8,58.1c-0.8,0.7-0.5,1.2,0,1.8V58.1z
					 M1728.3-0.1l0.6-0.6l-1-0.7c-0.1,0.1-0.2,0.3-0.3,0.4C1727.8-0.7,1728-0.4,1728.3-0.1 M1747-187.6l-0.3,0.1
					c0,0.4,0.1,0.8,0.1,1.2c0,0.1,0.4,0.1,0.9,0.2L1747-187.6 M1726.7,67.7l-0.3-0.1c-0.1,0.4-0.2,0.7-0.4,1.1l0.3,0.1L1726.7,67.7
					 M1745.2,75.7c0.4,0.8,0.4,0.8,1.2,0.7L1745.2,75.7 M1726.9-13.7c-0.1,0.5-0.7,1,0.4,1.3C1727.1-13,1727-13.4,1726.9-13.7
					 M1730-107.7l0.6,0.3c0.1-0.2,0.2-0.5,0.3-0.7c0-0.3,0-0.6,0-0.9c-0.4,0.3-0.7,0.4-0.8,0.6C1730-108.2,1730-107.9,1730-107.7
					 M1729.8-98.2l0.5-0.5c-0.3-0.2-0.6-0.4-0.9-0.6c0,0-0.2,0.2-0.2,0.3C1729.3-98.8,1729.5-98.5,1729.8-98.2 M1724-36.4
					c0.2-0.2,0.3-0.5,0.3-0.8c0-0.1-0.3-0.4-0.4-0.4c-0.2,0.1-0.5,0.3-0.5,0.5C1723.5-36.9,1723.8-36.7,1724-36.4 M1735.8-61.9
					l-1.7-1C1734.3-61.6,1734.7-61.5,1735.8-61.9 M1728.1-87.7l-0.4-0.1c-0.1,0.4-0.2,0.8-0.3,1.2l0.2,0.1L1728.1-87.7 M1690.2-71.1
					c-0.6-1.2-0.9-1.2-1.5-0.3L1690.2-71.1 M1768.6-169.5l-0.3,0.2c0.2,0.3,0.3,0.7,0.5,1l0.4-0.2
					C1768.9-168.9,1768.7-169.2,1768.6-169.5 M1739.4-74.7c0.1-0.2,0.3-0.3,0.3-0.5c0-0.1-0.2-0.2-0.3-0.4l-0.5,0.5L1739.4-74.7
					 M1700.6-71.6l0.5,0.2l0.3-1.1l-0.3-0.1C1701-72.3,1700.8-72,1700.6-71.6 M1696.4-79.3l-0.3-0.3l-0.7,1.3
					c0.1,0.1,0.2,0.1,0.3,0.2C1695.9-78.5,1696.1-78.9,1696.4-79.3 M1736.2-80.5l0.2,0.3l0.8-0.6l-0.2-0.3L1736.2-80.5
					 M1700.3-161.2l0.4-0.1c-0.1-0.3-0.2-0.5-0.3-0.8c0,0-0.2,0-0.3,0C1700.1-161.8,1700.2-161.5,1700.3-161.2 M1732.2-169.2
					l0.4,0.1c0-0.3,0.1-0.6,0.1-1c-0.1,0-0.3,0-0.4-0.1C1732.3-169.8,1732.2-169.5,1732.2-169.2 M1701.7-159.8l0.5,0.2
					c0.1-0.3,0.1-0.6,0.2-0.9l-0.3-0.1C1702-160.4,1701.9-160.1,1701.7-159.8 M1707.6-160.3c-0.7-0.2-1.3-0.2-1.2,0.9L1707.6-160.3
					 M1764.8-85.5c-0.1,0.3-0.2,0.6-0.2,0.8c0,0.1,0.2,0.2,0.4,0.4c0.1-0.2,0.4-0.3,0.4-0.5C1765.3-85,1765.1-85.2,1764.8-85.5
					 M1687.3-54.3c-0.1-0.1-0.2-0.2-0.3-0.3l-0.7,0.6c0.1,0.1,0.2,0.2,0.3,0.3C1686.9-53.9,1687.1-54.1,1687.3-54.3 M1723.8-50.2
					c0.2-0.2,0.4-0.4,0.4-0.5c-0.1-0.2-0.2-0.3-0.4-0.3c-0.1,0-0.3,0.1-0.5,0.2C1723.5-50.6,1723.6-50.4,1723.8-50.2 M1697.7-89.5
					c0.1-0.2,0.2-0.5,0.3-0.7c0-0.1-0.4-0.3-0.4-0.3c-0.2,0.2-0.3,0.4-0.4,0.6C1697.2-89.9,1697.4-89.7,1697.7-89.5 M1727.6-44.3
					l0.5-0.1c-0.1-0.3-0.2-0.7-0.3-1l-0.4,0.1C1727.4-45,1727.5-44.7,1727.6-44.3 M1694.1-42.1c-0.1-0.2-0.2-0.4-0.4-0.4
					s-0.3,0.1-0.5,0.2c0.1,0.2,0.2,0.4,0.3,0.6L1694.1-42.1 M1759.8-95c-1,0-1.4,0.3-1.4,1.3L1759.8-95 M1732.8-35.1l-1.5,0.3
					C1732.1-34,1732.5-34.5,1732.8-35.1 M1714.6-156.7c0.1-0.1,0.1-0.2,0.2-0.3l-0.9-0.4l-0.1,0.3L1714.6-156.7 M1702-178.7
					c0.2-0.3,0.4-0.4,0.4-0.6c0-0.1-0.2-0.3-0.3-0.4c-0.2,0.2-0.4,0.3-0.5,0.5C1701.6-179.3,1701.8-179.1,1702-178.7 M1725.7-24.3
					l0.4,0.4l1-0.9l-0.3-0.4L1725.7-24.3 M1743,75.9l0.5-0.2l-0.6-1.2l-0.3,0.1C1742.7,75.1,1742.9,75.5,1743,75.9 M1720.3-153.2
					c0.1-0.1,0.2-0.2,0.3-0.3l-0.6-0.6c-0.1,0.1-0.1,0.1-0.2,0.2L1720.3-153.2 M1734.6,74.2l0.3,0.2l0.6-1c-0.1-0.1-0.2-0.1-0.3-0.2
					C1735,73.6,1734.8,73.9,1734.6,74.2 M1761.1-186.8c-0.2-0.2-0.5-0.3-0.7-0.4c-0.1,0-0.3,0.2-0.4,0.3c0.2,0.2,0.4,0.3,0.6,0.4
					C1760.6-186.3,1760.8-186.6,1761.1-186.8 M1715.3,63.6c-0.2-0.2-0.3-0.3-0.5-0.4c0,0-0.3,0.3-0.3,0.4c0.1,0.2,0.2,0.4,0.3,0.5
					L1715.3,63.6 M1749.9-192.1h-0.5c0,0.3,0,0.5,0.1,0.8c0.2,0,0.3,0,0.5,0C1749.9-191.5,1749.9-191.8,1749.9-192.1 M1700.1-146
					l-0.3-0.1c-0.1,0.3-0.2,0.6-0.3,0.9l0.4,0.1L1700.1-146 M1746.5,10.1c0.1-0.2,0.3-0.4,0.3-0.5s-0.2-0.3-0.3-0.4
					c-0.1,0.1-0.3,0.3-0.3,0.4S1746.4,9.8,1746.5,10.1 M1733.2,50.4c-0.1,0.1-0.1,0.2-0.2,0.3c0.2,0.2,0.5,0.4,0.8,0.5
					c0.1-0.1,0.2-0.2,0.2-0.3L1733.2,50.4 M1714.2-145c-0.1,0.2-0.3,0.4-0.3,0.5s0.2,0.3,0.3,0.4c0.1-0.2,0.3-0.4,0.3-0.6
					C1714.6-144.7,1714.3-144.8,1714.2-145 M1697,48.3c0.9,0.1,1.4,0.1,1.3-0.8L1697,48.3 M1764.9,46.5c-0.2,0.3-0.3,0.6-0.5,1
					c0,0,0.2,0.2,0.3,0.2c0.2-0.1,0.4-0.2,0.6-0.4C1765.3,47.1,1765.1,46.9,1764.9,46.5 M1738.6-135.1l0.4-0.2
					c-0.1-0.2-0.1-0.4-0.1-0.6c0-0.2-0.1-0.5-0.2-0.7c-0.2,0.1-0.3,0.3-0.5,0.4C1738.3-135.8,1738.4-135.5,1738.6-135.1
					 M1734.8-201.5l-0.5-0.2c-0.2,0.3-0.3,0.7-0.5,1c0.1,0.1,0.3,0.2,0.3,0.1C1734.4-200.9,1734.6-201.2,1734.8-201.5 M1703.5-204.5
					l0.3,0.3l0.7-0.6l-0.2-0.2L1703.5-204.5 M1723.8,34.3l-0.4,0.4l0.8,0.6c0.1-0.1,0.2-0.2,0.2-0.3
					C1724.2,34.8,1724,34.5,1723.8,34.3 M1700.6-207.2l0.4,0.3l0.6-0.8l-0.3-0.3C1701.1-207.7,1700.9-207.4,1700.6-207.2
					 M1727.9-222.7c-0.3-0.2-0.6-0.3-0.9-0.4c-0.2,0-0.3,0.1-0.5,0.2c0.1,0.2,0.2,0.5,0.4,0.5
					C1727.2-222.4,1727.4-222.6,1727.9-222.7 M1747.6,33.5l0.4-0.3c-0.2-0.3-0.4-0.6-0.6-0.9l-0.3,0.2
					C1747.3,32.9,1747.5,33.2,1747.6,33.5 M1716,33.1l0.4-0.1c-0.1-0.3-0.2-0.6-0.4-0.9c-0.1,0-0.2,0-0.3,0.1
					C1715.8,32.5,1715.9,32.8,1716,33.1"/>
			</g>
		</g>
	</g>
</g>
<g id="Grupo_4416" transform="translate(1640 876)">
	<g>
		<g>
			<g id="Grupo_4415" transform="translate(0 0)">
				<path id="Trazado_8230" class="st0" d="M-1292.5-321.6c-1.4,0.8-2.4,1.3-3.3,1.8c0.3,0.4,0.5,0.8,0.8,1.2
					c0.9-0.2,1.8-0.4,3.4-0.7c2.2,4.7,4.5,9.5,6.7,14.3c-1.4,1.2-2.5,2.1-3.6,3c1,1,1.8,2.6,2.9,2.9c2.7,0.7,3.4,2.5,4.1,4.7
					c12.1,40.9,8.4,80.4-10.6,118.5c-10.7,21.4-26.1,40-45.2,54.5c-15.4,11.8-32.3,20.9-51.2,25.9c-3.6,1-6.9,3.9-11.3,2
					c-0.9-0.4-2.5,1.9-4,2.2c-11.1,2-22.1,4.2-33.4,3.9c-0.7-0.1-1.5-0.2-2.2-0.3c-0.2-2.3-0.5-4.5-0.7-6.7c-0.3,0-0.7,0-1-0.1
					c-0.6,2.2-1.2,4.3-1.8,6.9c-4.1-1.3-9,0.9-11.6-3.9c-7,3.9-13.2-1-19.8-1.1c-0.5-2.1,2.3-4.6-1.7-5.4c-4.7,2.5-9.9,2.4-15.1,0
					c-8.8-4.1-17.6-8.3-26.3-12.6c-3-1.5-5.5-3.7-8.4-5.3c-2.8-1.5,0.3-3.7-1-5.8c-1.3,0.7-2.5,1.3-4,2.1
					c-8.5-6.3-16.4-13.4-23.5-21.2c-0.6-0.7-0.6-2-1-3c-0.4-0.9-1.2-2.6-1.6-2.5c-2.8,0.6-3.5-1.7-4.7-3.2
					c-10-12.5-17.9-26.4-23.4-41.4c-2.9-8-5.3-16.1-7.1-24.4c-1.8-8.4-2.8-17-3.8-25.6c-0.2-2,0.7-4.2,1.1-6.3
					c0.1-0.5,0.4-1.1,0.2-1.5c-2.8-5.2-1.9-10.2,0.8-15.2c0.3-0.5,0.3-1,0.2-1.5c-2.1-3.9-0.2-7.7,0.4-11.5
					c3.5-19.8,10.8-38.7,21.4-55.8c1-1.6,2-3.1,3-4.5c1.3,0.4,2.4,0.7,3.5,0.9c-0.2-0.9-0.4-1.8-0.5-2.7c0-1-0.1-2.4,0.5-3.1
					c2-2.4,4.2-4.6,6.3-6.8c0.4-0.4,1-0.6,1.2-1.1c4.5-9.7,12.9-15.9,20.8-22.4c23.4-19.3,50.3-30.9,80.4-35
					c5.3-0.7,10.7-1.3,14.9-1.8c3.2,1.2,0.7,5.1,4.7,4.7c0.3-1.4,0.7-2.9,1.1-4.6c6.5-0.6,12.8,0.5,19.6,1.7c-0.9,1.6-1.4,2.4-2.3,4
					c1.6-0.1,3.4,0.2,3.7-0.3c2.1-4.6,5.6-3.3,9.1-2.6c9.1,1.7,18,4.1,26.6,7.4c-0.3,1.2-0.5,2-0.7,3c0.3,0,0.6,0.2,0.7,0.1
					c1.8-2,3.6-1.6,6-0.7c23.9,9.8,44.9,25.3,61.4,45.2C-1304.6-342-1298.4-332.3-1292.5-321.6 M-1400.9-146.9
					c-1.4,0.2-2.8,0.6-4.1,1c-2.1,0.8-1.1,1.8,0.5,3.1c1.2-1.4,2.4-2.8,3.5-4.2c1.2-0.4,2.3-0.7,4-1.2l-2.4-2.5
					C-1400-149.2-1400.4-148-1400.9-146.9 M-1472.2-332.9c3.9,2.4,6.9-1.7,11.2-1.5c-2-2.4-3.4-4.2-5.3-6.6
					c-0.8,1.6-1.6,3.2-2.6,4.7C-1469.9-335.1-1471-334-1472.2-332.9 M-1453.4-302.1c1.5,0.7,3.4,1.5,5.3,2.4c0.6-5.6-1-7.4-8.5-10
					C-1455.5-307.3-1454.5-304.8-1453.4-302.1 M-1450.3-269.3c-1.7-0.7-3.5-1.3-5.3-1.8c-0.7-0.1-1.7,1-2.5,1.6
					c0.5,0.7,0.9,1.9,1.4,1.9c2.8,0.1,1.1,2.7,2.3,3.7C-1453.9-266.4-1449.2-264.6-1450.3-269.3 M-1422.2-202.7
					c-1.3,3.6-2.3,6.5-3.4,9.4c2.3-3.2,5.2,3.2,7.8-0.7c-2.6-1.4-4.4-3-2.6-6.1C-1420.2-200.4-1421.2-201.4-1422.2-202.7
					 M-1394.5-126.3c-3.9,0.5-6.4,0.8-9.6,1.2c-0.3,0.5-1.1,1.6-2.1,3.2C-1401.3-121.1-1398.4-123.1-1394.5-126.3 M-1395.8-241.7
					c0.9-1.8,1.7-3.4,2.7-5.2c-3.5-1-5.6-0.3-7.5,2.3L-1395.8-241.7 M-1530.3-345.3c-3.6,4,3.5,3.7,3.5,6.8c1-1.1,2.1-2.1,3-3
					C-1526.2-342.9-1528.2-344.1-1530.3-345.3 M-1321.9-316.3v4.7h6.5c0.1-0.3,0.1-0.6,0.2-0.9
					C-1317.2-313.7-1319.4-314.9-1321.9-316.3 M-1555-290.8c3.7-0.4,7.1-0.7,10.4-1.1C-1549-294.8-1549-294.8-1555-290.8
					 M-1385.8-108.7c-2.4,0.4-2.4,0.4-3.4,7.6C-1383.9-101.9-1388.3-106.8-1385.8-108.7 M-1397.7-207.2c-0.2,2.9,0.9,4.2,3.2,3.7
					c0.8-0.2,2.1-1.6,1.9-2.2C-1393.3-208.6-1395.6-207.3-1397.7-207.2 M-1382.4-126.8c1.6,3.1,5,5.1,6.7,3.3
					c-0.5-1.1-1.1-2.3-2.1-4.4C-1379.3-123.5-1380.9-127.6-1382.4-126.8 M-1463.7-251.2c1.9,1.3,3.1,2.2,4.9,3.5
					c-0.2-3.1-0.4-5.1-0.7-8.4C-1461.3-254-1462.2-252.9-1463.7-251.2 M-1287.9-289.4c-1.4-2.2-0.2-6.2-4.6-6.7
					C-1293.9-291.7-1289.7-291.4-1287.9-289.4 M-1395-331.3c-0.2-0.4-0.4-0.8-0.6-1.2l-5.7,0.9c0.7,1.9,1.2,3.3,2.1,5.6
					C-1397.4-328.2-1396.2-329.7-1395-331.3 M-1521.1-155c-3.1-3.8-6.7-0.1-9.9-2.4c0.1,0.8,0.3,1.6,0.6,2.4
					C-1527.5-155-1524.6-155-1521.1-155 M-1526.7-312.4c-0.3-3-0.5-5.1-0.7-8C-1530.6-314.7-1530.6-314.7-1526.7-312.4 M-1356-311.9
					c-0.6-1.8-1.1-3.5-1.7-5.3c-0.4,0-0.8-0.1-1.2-0.1c-0.5,1.4-1.6,2.9-1.3,4.1C-1359.8-311.5-1358.3-310.5-1356-311.9
					 M-1471.9-119.9c1.2,2,2,3.5,2.9,5c0.4,0.3,1,0.4,1.5,0.1c0.5-0.5,0.8-1.1,0.8-1.8C-1467.1-119.1-1469.2-119.3-1471.9-119.9
					 M-1403.8-173c-2.5,0.6-4.1,1-5.7,1.4C-1407.5-169.8-1405.5-167.6-1403.8-173 M-1390.7-362c3.4-1.6,3.9-3.4,0.6-6.4
					C-1390.3-365.7-1390.5-363.9-1390.7-362 M-1336.1-223c1.3,2,2.6,4.1,4.3,6.6C-1330.7-220.6-1330.9-220.9-1336.1-223
					 M-1322.5-244.1c-3.8-1.3-4.8-0.2-4.2,4.7C-1325.1-241.1-1323.9-242.5-1322.5-244.1 M-1514.6-348.5c-4-1.9-3.9,3.2-6.7,3.6
					C-1517.8-343.7-1516.9-347.3-1514.6-348.5 M-1553.9-231.2c5.7,0.7,5.7,0.7,5.8-2.2c-1.9,0.6-3.8,1.1-5.6,1.7
					C-1553.8-231.6-1553.8-231.3-1553.9-231.2 M-1377.2-144c2.1,2.2,4,3.2,6.9,2C-1372.5-143.4-1373.4-146.8-1377.2-144
					 M-1385-264.9c2.8,1.6,2.8,1.6,5.9-0.1C-1381.5-265.2-1383-268.9-1385-264.9 M-1443.7-149.7c1,0.5,2,0.9,3,1.3
					c1.1,0.2,2.1,0.3,3.2,0.4c-1.8-2.2-3-3.6-4.7-5.7C-1442.9-151.9-1443.2-151-1443.7-149.7 M-1502.9-221.4c0.8,1.6,0.4,3.6,2.9,4
					C-1498.6-221.8-1498.8-221.9-1502.9-221.4 M-1395.4-183.3c-3.8-2.4-6.4-1.8-7.4,1C-1400.3-182.6-1397.8-182.9-1395.4-183.3
					 M-1387.4-141c-1.9-0.6-3.6-1.1-5.7-1.8C-1390.6-137.7-1390.2-137.5-1387.4-141 M-1305.1-167.2l-1.6-0.5
					c-0.6,1.4-1.2,2.7-1.8,4.1c0.8,0.2,1.5,0.4,2.3,0.5C-1305.7-164.5-1305.3-165.8-1305.1-167.2 M-1422.5-232.4
					c0.2-2.4-0.7-3.5-2.4-3.4c-0.8,0.1-1.6,1.2-2.3,1.9c-0.1,0.1,0,0.6,0.1,0.9C-1425.6-232.8-1424.2-232.6-1422.5-232.4
					 M-1394.1-310.6c-1.4-2.1-3.7-3.4-6.2-3.6C-1398.1-312.1-1397.8-309-1394.1-310.6 M-1337.9-156.8c2.3-1.4,2.8-3.4,2.3-6.4
					C-1338.7-161.4-1337.7-158.8-1337.9-156.8 M-1392.7-324.6c-1.3-0.1-2.4-0.1-3.6-0.2c0.4,2,0.7,3.7,1.2,6.4
					C-1394.1-321.1-1393.5-322.6-1392.7-324.6 M-1383.1-350.9l0.8-0.8c-1.4-1.9-2.7-3.8-4.1-5.6c-0.4,0.3-0.7,0.5-1.1,0.8
					C-1387-354.1-1385.4-351.9-1383.1-350.9 M-1440.3-335.7c-4.3-2-4.5-1.9-5,2.2C-1443.7-334.3-1442.1-334.9-1440.3-335.7
					 M-1339.6-364.6c-0.1-0.4-0.2-0.8-0.2-1.3c-1.2,0.2-2.7,0.1-3.5,0.7c-1.6,1.4-0.8,2.7,0.6,3.9
					C-1341.6-362.5-1340.6-363.6-1339.6-364.6 M-1387.9-197.7c-4.6-1.1-4.6-1.1-8.9,1.5C-1393.7-196.7-1391.3-197.1-1387.9-197.7
					 M-1379.7-149c2.1-0.6,3.4-1,5-1.4C-1378.3-153.5-1378.3-153.5-1379.7-149 M-1285.1-265.8c0.7,1.8,1.8,3,3.8,1.6
					c0.4-0.5,0.5-1.3,0.3-1.9C-1282.5-268-1283.8-267.5-1285.1-265.8 M-1345.4-262.6c0.2,0.4,0.4,0.9,0.6,1.3
					c2.2,0.3,4.1,0.1,4.5-3.6C-1342.4-264-1343.9-263.3-1345.4-262.6 M-1408-272.7c0.5-0.1,0.9-0.2,1.4-0.2
					c-0.2-1.7-0.4-3.5-0.5-5.2c-0.4,0-0.8,0.1-1.2,0.1C-1409.2-276.2-1409.5-274.4-1408-272.7 M-1383.4-290.5c2.4-0.1,4-0.5,4.9-3.3
					C-1381.1-293.8-1383.3-294.6-1383.4-290.5 M-1355.6-177.9c-1.4-3.3-1.4-3.3-5.3-0.3L-1355.6-177.9 M-1544.4-177.6l-0.2,1.3
					c1.1,0.4,2.3,1.2,3.2,0.9c0.7-0.2,0.9-1.9,1.6-3.6C-1542-178.3-1543.2-177.9-1544.4-177.6 M-1309.8-214c4.2,1.3,4.2,1.3,4.4-1.6
					C-1307-215.1-1308.4-214.6-1309.8-214 M-1407.9-216.7c-3.1-2-4.8-1.2-6.6,0.2C-1412.6-215.2-1410.8-215.7-1407.9-216.7
					 M-1305-325.9c-1.2-2-2.4-2.8-4.4-1.8c-0.2,0.1-0.4,1.1-0.2,1.4C-1308.4-324.1-1306.9-324.5-1305-325.9 M-1354.3-155.8
					c0.4-1.7,2.2-2.8,0.1-4.1c-0.6-0.3-1.4-0.2-2,0.2C-1357.4-158.1-1356.4-157.1-1354.3-155.8 M-1526.6-336.8
					c-3.9,0.9-3.9,0.9-5.2,3.8C-1528.8-334-1528.8-334-1526.6-336.8 M-1360.3-149.9c-3-2.6-3-2.6-4.2,0.5
					C-1362.9-149.6-1361.6-149.8-1360.3-149.9 M-1480.4-379.6c-2-0.7-3.7-1.5-4-1.2c-0.8,0.9-0.9,2.3-1.3,3.4l0.9,0.6
					C-1483.6-377.6-1482.5-378.3-1480.4-379.6 M-1422.1-363.3c3-2.7,3-2.7,0-4.8V-363.3z M-1327.4-350.7c2.5-3.4,2.5-3.4-0.3-5.3
					C-1327.6-354.3-1327.5-352.8-1327.4-350.7 M-1310.1-335.8c-0.1-0.3-0.2-0.7-0.4-1c-1,0.2-2.4,0.1-2.8,0.7s0.3,1.9,0.6,3.7
					C-1311.3-334.1-1310.7-334.9-1310.1-335.8 M-1559.2-234l-1.1,1.2c1.1,0.9,2.2,1.8,4.2,3.4C-1556.4-232.7-1557-234.1-1559.2-234
					 M-1362.2-238.6c2.4,0.4,3.6,0.5,5,0.8c0.1-1.4,0.2-2.4,0.4-4C-1358.7-240.7-1359.9-239.9-1362.2-238.6 M-1476.2-252.9l1.2-1.2
					c-0.8-1.8-1.6-3.6-5.4-3.6C-1478.6-255.5-1477.4-254.2-1476.2-252.9 M-1450-183.4c-2.1-0.7-3.2-1.1-4.5-1.5
					C-1453.7-181.9-1453.7-181.9-1450-183.4 M-1497.3-128.5c-0.5-0.4-0.9-0.8-1.4-1.2c-0.7,0.8-1.5,1.6-2.2,2.4
					c0.6,0.5,1.3,1,1.9,1.5C-1498.4-126.6-1497.9-127.6-1497.3-128.5 M-1298.8-300c0.6-2.9,0.1-4.4-2.9-4.7
					C-1302.4-302.3-1302.3-300.6-1298.8-300 M-1372.6-258.6h5.3C-1368.9-260.7-1370.5-262.5-1372.6-258.6 M-1463.2-277.7
					c0.2-0.6,0.4-1.2,0.6-1.7c-1-0.2-2-0.4-3.1-0.6c-0.1,0-0.4,0.9-0.4,0.9C-1465.1-278.6-1464.2-278.2-1463.2-277.7 M-1397.7-294
					c-0.6-0.1-1.2-0.1-1.7-0.2c-0.5,1.3-0.7,2.5,1.4,4.6C-1397.9-291.6-1397.8-292.8-1397.7-294 M-1562.2-295.1
					c-0.3,0.4-0.7,0.9-1,1.3c1.4,1,2.7,2,4.1,3.1c0.2-0.3,0.4-0.5,0.6-0.8C-1559.7-292.7-1561-293.9-1562.2-295.1 M-1356.1-297.3
					c0.8-0.8,1.6-1.5,1.5-1.8c-0.4-0.8-0.8-1.5-1.4-2.1c-0.6,0.5-1.8,1-1.8,1.5C-1357.7-299-1356.9-298.3-1356.1-297.3 M-1499-263.4
					c2.9-2.1,2.9-2.1,0.3-3.6c-0.3,0.4-0.5,0.9-0.6,1.4C-1499.3-264.9-1499.2-264.1-1499-263.4 M-1357.2-368.3
					c-2.8-1.2-3.8-0.4-3.6,2.1c0.1,0.5,0.5,1,1.1,2.1C-1358.6-365.8-1357.9-367-1357.2-368.3 M-1356.6-276.5
					c0.6,0.1,1.3,0.3,1.9,0.4c0.2-1,0.3-2.1,0.4-3.1c-0.6-0.2-1.3-0.4-1.9-0.4C-1356.3-278.6-1356.5-277.6-1356.6-276.5
					 M-1332.6-308.3c-0.4-0.3-0.7-0.6-1.1-0.8c-0.9,1.1-1.8,2.2-3.3,4C-1333.3-305-1333.4-307.1-1332.6-308.3 M-1294.1-257.9
					c1.7-1.6,2.6-2.7,0.1-3.4c-0.5-0.2-1.2,0.2-3.3,0.8C-1295.6-259.2-1294.9-258.6-1294.1-257.9 M-1376.2-307.9
					c3.1,0.4,3.1,0.4,5.4-2.3C-1373.3-309.1-1374.7-308.5-1376.2-307.9 M-1401.6-205.9c-1.5,3.4,0.3,4.7,3.3,6.5
					C-1399.6-202-1400.4-203.7-1401.6-205.9 M-1526.5-133.2c-0.3-0.1-0.6-0.2-0.8-0.3c-0.5,1.7-1.1,3.5-1.6,5.2l1.1,0.3
					C-1527.4-129.7-1526.9-131.4-1526.5-133.2 M-1372.1-236.7c0.5-2.1,0.9-4.1-2.1-5.2C-1373.4-239.9-1372.8-238.3-1372.1-236.7
					 M-1532-147.8c0.7,0.6,1.5,1.1,2.4,1.5c0.4,0.1,0.9-0.9,1.4-1.3l-2.1-1.9C-1530.9-149.1-1531.3-148.6-1532-147.8 M-1509-228.8
					c1.4,1,2.1,1.6,3.2,2.4c0.5-1.3,0.8-2.2,1.3-3.7C-1506.2-229.6-1507.2-229.4-1509-228.8 M-1398.7-152.7c-0.4-2.8-1.1-4-3.5-2.9
					c-0.2,0.1-0.3,0.6-0.5,1.3C-1401.5-153.9-1400.4-153.4-1398.7-152.7 M-1430.6-165.5c-0.9,4.1-0.9,4.1,3.2,4.2
					C-1428.6-162.9-1429.5-164-1430.6-165.5 M-1423.2-385c-0.5-0.2-1-0.4-1.5-0.6c-0.4,1.1-0.8,2.2-1.2,3.4c0.4,0.2,0.8,0.4,1.3,0.5
					C-1424.1-382.8-1423.7-383.9-1423.2-385 M-1425.2-136.2c-0.2-0.1-0.5-0.2-0.8-0.3c-0.4,0.5-1,1-1,1.5c0.1,0.8,0.3,1.5,0.6,2.2
					c0.3,0,0.6-0.1,0.9-0.1C-1425.4-134-1425.3-135.1-1425.2-136.2 M-1327.1-254.9l-0.2-1c-0.7-0.1-1.5-0.4-2-0.1
					c-0.6,0.3-1,1.1-2.2,2.8L-1327.1-254.9 M-1380.6-315.9c1.1,0.9,1.9,1.6,3,2.5C-1377.9-316.5-1377.9-316.5-1380.6-315.9
					 M-1305.2-308.6c0.1,0.5,0.2,1,0.3,1.6l3.6-1.2l-0.2-0.8L-1305.2-308.6 M-1471.7-297.6c-0.9-3-1.6-4.4-3.7-2.6
					c-0.2,0.2-0.2,0.6-0.4,1.1C-1474.7-298.7-1473.7-298.3-1471.7-297.6 M-1310.7-175.4c-0.6,1.2-1.1,2.4-2,4.3
					C-1309.2-171.5-1309.6-173.2-1310.7-175.4 M-1434.8-181.9c0.6-0.1,1.2-0.2,1.8-0.2c-0.3-1-0.5-2-0.8-2.9c0-0.1-0.9,0-0.9,0
					C-1434.8-183.9-1434.8-182.9-1434.8-181.9 M-1434.2-277.1c-2.5,1.2-4,1.9-5.6,2.6C-1438.1-274.9-1435.8-274-1434.2-277.1
					 M-1566.9-191.6c2.6,0.5,2.6,0.5,3.2-1.7L-1566.9-191.6 M-1453.8-287.3c0.2,0.3,0.3,0.6,0.5,0.8c0.8-0.3,1.6-0.7,2.4-1
					c-0.1-0.3-0.2-0.6-0.4-0.9L-1453.8-287.3z M-1310.8-267.9c-1.1-3.4-2.5-3.3-4.8-2.2C-1313.9-269.3-1312.7-268.8-1310.8-267.9
					 M-1464.4-141.9c-0.3-1.3-0.5-2.6-1-4.6C-1467.5-144-1466.8-142.7-1464.4-141.9 M-1487.7-303.1c-0.3,0.3-0.7,0.7-1,1
					c0.6,0.7,1.2,1.4,1.7,2.1c0.4-0.3,0.7-0.6,1.1-0.9C-1486.5-301.7-1487.1-302.4-1487.7-303.1 M-1452-145.1
					c2.2-0.2,3.4-0.3,5.4-0.5C-1448.8-146.9-1450.1-148-1452-145.1 M-1348.6-311.7c0.4,2.5,0.4,2.5,3.2,2.5
					C-1346.7-310.2-1347.6-310.9-1348.6-311.7 M-1518.9-321.6c-0.4,0.2-0.9,0.3-1.3,0.5c0.4,0.8,0.7,1.7,1.1,2.5
					c0.4-0.2,0.9-0.4,1.3-0.7C-1518.1-320-1518.5-320.8-1518.9-321.6 M-1334.6-322.7l-1.1,0.5c0.1,0.6,0,1.5,0.4,1.9
					c0.5,0.5,1.3,0.5,3.2,1.1L-1334.6-322.7 M-1553.5-249.4c-0.3,0.5-0.5,1-0.8,1.5c1,0.3,1.9,0.6,2.9,0.8c0.2-0.4,0.4-0.8,0.6-1.3
					C-1551.8-248.7-1552.6-249.1-1553.5-249.4 M-1387.4-237l1.2,1l2.1-3.4l-1-0.7L-1387.4-237z M-1339.5-334.5
					c0.6,0.1,1.3,0.2,1.9,0.3c0-1,0.1-2.1,0.1-3.1c-0.4-0.1-0.9-0.2-1.3-0.2C-1339.1-336.6-1339.3-335.5-1339.5-334.5
					 M-1519.9-167.4c-0.3,0.3-0.7,0.6-1,0.9c0.7,0.8,1.4,1.5,2.1,2.3c0.3-0.4,1-1,0.9-1.1C-1518.5-166-1519.2-166.8-1519.9-167.4
					 M-1387.8-166.1c0.4-0.1,0.8-0.3,1.2-0.4c-0.2-0.8-0.4-1.6-0.6-2.4c-0.5,0.2-1.3,0.5-1.3,0.6
					C-1388.3-167.5-1388-166.8-1387.8-166.1 M-1440.1-400c-0.8,2.9-0.8,2.9,1.8,2.7C-1439-398.3-1439.6-399.1-1440.1-400
					 M-1345.1-174.8c0.6-0.7,1.3-1.3,1.2-1.4c-0.4-0.7-1-1.3-1.6-1.8c0,0-1,0.7-1,0.9C-1346-176.3-1345.6-175.5-1345.1-174.8
					 M-1441.4-179.2c0.3,0.1,0.6,0.3,1,0.4l0.8-3.6l-1-0.2C-1440.9-181.5-1441.1-180.4-1441.4-179.2 M-1578.1-231.2
					c0.1-0.4,0.2-0.7,0.3-1c-1.1-0.4-2.3-0.8-3.4-1.2c-0.1,0-0.2,0.2-1,0.8C-1580.6-232.1-1579.3-231.7-1578.1-231.2 M-1301.8-192.1
					c-0.1-0.5-0.3-0.9-0.5-1.4c-0.9,0.3-1.8,0.6-2.7,0.9c0,0.3,0.1,0.6,0.2,0.9C-1303.7-191.7-1302.8-191.9-1301.8-192.1
					 M-1516.4-191.4l1.6-0.3c-0.3-1-0.6-2-0.9-3.1c-0.4,0.1-0.7,0.2-1.1,0.2C-1516.6-193.4-1516.5-192.4-1516.4-191.4
					 M-1449.2-197.6c-1.8,0.3-3.6,0.9-2.4,3.7C-1450.6-195.5-1449.9-196.5-1449.2-197.6 M-1482.8-218.8c-0.5,0.6-1.1,1.1-1,1.3
					c0.3,0.5,0.7,1,1.2,1.4c0.2-0.4,0.6-0.9,0.6-1.3C-1482.1-217.8-1482.5-218.2-1482.8-218.8 M-1521.3-217.3c0.6,0.7,1,1.1,1.3,1.4
					c0.5-0.6,1.1-1.1,1.6-1.7c-0.4-0.3-0.8-0.8-1.2-0.7C-1520.2-218-1520.8-217.7-1521.3-217.3 M-1569.7-171.6
					c-0.2-0.3-0.3-0.7-0.5-1c-0.8,0.5-1.7,1-2.5,1.5l0.4,0.8L-1569.7-171.6 M-1417.9-168.3c0.3,0.1,0.7,0.2,1,0.4
					c0.5-1.2,0.9-2.5,1.4-3.7c-0.3-0.1-0.6-0.2-0.9-0.3C-1417-170.8-1417.4-169.6-1417.9-168.3 M-1422.7-343.2
					c-0.4-0.2-0.7-0.5-1-0.7c-0.6,0.8-1.1,1.7-1.7,2.5c0.2,0.2,0.5,0.4,0.7,0.5C-1424-341.6-1423.4-342.4-1422.7-343.2
					 M-1300.7-237.4c0-0.3,0-0.6,0-0.8h-3.1c0,0.3,0,0.6,0,0.8H-1300.7z M-1547.4-333.7c-0.5-0.7-1-1.5-1.1-1.5
					c-0.7,0.4-1.3,0.8-2,1.2c0.3,0.3,0.7,1,1,1C-1548.7-333.1-1548-333.4-1547.4-333.7 M-1433.3-329.1c-3-0.1-3.4,1.3-3.5,2.8
					c0,0.2,0.3,0.4,0.5,0.7C-1435.4-326.6-1434.5-327.5-1433.3-329.1 M-1331.2-323.8c0.6,0.5,1.3,0.9,2.1,1.2
					c0.3,0.1,0.8-0.5,1.2-0.8c-0.4-0.5-0.9-0.9-1.5-1.3C-1329.7-324.7-1330.3-324.2-1331.2-323.8 M-1372.5-160.4c-0.4,0-0.9,0-1.3,0
					l0.5,2.9c0.3,0,0.5-0.1,0.8-0.1V-160.4z M-1429.9-323.8c-0.3-0.4-0.6-0.7-1-1.1c-0.8,0.6-1.6,1.2-2.4,1.9c0.2,0.3,0.4,0.7,0.7,1
					C-1431.7-322.6-1430.8-323.2-1429.9-323.8 M-1329.9-153c0.2-0.4,0.5-0.8,0.7-1.1l-2.5-1.3c-0.2,0.3-0.3,0.5-0.5,0.8
					C-1331.4-154.1-1330.6-153.6-1329.9-153 M-1469.2-320.3c0.5-0.4,1.1-0.6,1.1-1c0-0.3-0.5-1.1-0.8-1c-0.5,0.2-1,0.4-1.4,0.8
					C-1470-321.1-1469.6-320.8-1469.2-320.3 M-1519-258.4c-0.3-0.1-0.6-0.1-0.9-0.2l-0.8,2.9l1.2,0.3
					C-1519.4-256.5-1519.2-257.5-1519-258.4 M-1572.8-265.2c-0.1,0.3-0.2,0.6-0.3,0.9c0.8,0.4,1.7,0.7,2.5,0.9
					c0.2-0.4,0.4-0.9,0.6-1.3C-1570.9-264.9-1571.8-265.1-1572.8-265.2 M-1474.8-136.5c1.2-2.2,1.2-2.2-0.6-3.4
					C-1475.2-138.8-1475-137.9-1474.8-136.5 M-1426.1-297.3l1,0.1c0.2-0.3,0.5-0.8,0.5-1c-0.3-0.5-0.7-1-1.1-1.4
					C-1425.9-298.8-1426-298-1426.1-297.3 M-1475.7-128.1c0.8-1.1,1.4-1.7,1.3-2.1c-0.1-0.5-0.8-0.9-1.3-1.3
					c-0.3,0.4-0.9,0.8-0.9,1.2C-1476.6-129.9-1476.2-129.3-1475.7-128.1 M-1284.4-291.3c0.5,0,1,0,1.5,0c-0.1-0.9-0.1-1.7-0.2-2.6
					c-0.3,0-0.6,0-0.9,0C-1284.1-293-1284.2-292.1-1284.4-291.3 M-1309-274.8c0.8,0.6,1.3,1,1.8,1.4c0.3-0.4,0.7-0.8,0.7-1.2
					c-0.1-0.5-0.5-0.9-0.9-1S-1308.2-275.2-1309-274.8 M-1469.5-104.2c0.3,0.4,0.5,0.8,0.8,1.1c0.8-0.5,1.6-1.1,2.3-1.6
					c-0.1-0.2-0.3-0.5-0.4-0.7C-1467.7-105.1-1468.6-104.7-1469.5-104.2 M-1466.1-99.4c-0.4,0.5-0.7,0.8-1,1.2
					c0.5,0.3,1,0.6,1.6,0.7c0.2,0,0.5-0.7,0.8-1.1L-1466.1-99.4 M-1446.8-99.2c-0.4,0-0.8,0-1.2,0c0.1,0.8,0.2,1.5,0.3,2.3
					c0.3,0,0.9-0.1,0.9-0.1C-1446.8-97.7-1446.8-98.4-1446.8-99.2 M-1524.3-277.7c0.7,0.3,1.3,0.6,2,0.8c0.1,0,0.5-0.7,0.5-0.8
					c-0.4-0.5-0.9-0.9-1.4-1.2C-1523.6-278.6-1524-278.2-1524.3-277.7 M-1421.6-278.7l-1.2,0.6c0.5,0.9,1,1.8,1.6,2.7
					c0.3-0.2,0.6-0.3,0.9-0.5C-1420.8-276.8-1421.2-277.7-1421.6-278.7"/>
			</g>
		</g>
	</g>
</g>
</svg>
